<?xml version="1.0" standalone="no"?>
<!DOCTYPE svg PUBLIC "-//W3C//DTD SVG 1.1//EN" "http://www.w3.org/Graphics/SVG/1.1/DTD/svg11.dtd" >
<!--
2013-9-30: Created.
-->
<svg>
<metadata>
Created by iconfont
</metadata>
<defs>

<font id="iconfont" horiz-adv-x="1024" >
  <font-face
    font-family="iconfont"
    font-weight="500"
    font-stretch="normal"
    units-per-em="1024"
    ascent="896"
    descent="-128"
  />
    <missing-glyph />
    
    <glyph glyph-name="report" unicode="&#59061;" d="M307.2 384h409.6V486.4H307.2z m563.2 289.28V793.6H768v-102.4H665.6V793.6H563.2v-102.4H460.8V793.6H358.4v-102.4H256V793.6H153.6v-120.32a99.328 99.328 0 0 1-51.2-84.48v-512a110.592 110.592 0 0 1 117.248-102.4h584.704A110.592 110.592 0 0 1 921.6 76.79999999999995v512a99.328 99.328 0 0 1-51.2 84.48zM819.2 76.79999999999995H204.8v512h614.4z m-512 102.4h409.6V281.6H307.2z"  horiz-adv-x="1024" />

    
    <glyph glyph-name="patient" unicode="&#59059;" d="M273.6 524.6c-1.2 11.6-1.9 23.2-1.9 34.8 0 148.9 94.9 233.7 212 233.7 65.3 1.5 127.4-28.7 166.5-81.3-45.9-43.5-97.2-80.8-152.7-111-69.1-39.6-145.1-65.5-223.9-76.2z m14.7-69.7c-3.3 10.3-6.2 20.7-8.5 31.3 81.5 12.4 160.3 39 232.7 78.7 57.5 30.6 110.4 69.3 157 115.1 5.1-10.4 9.4-21.1 13-32.1-47.5-51-103.6-93.2-165.7-124.4-71.5-36.5-148.9-59.7-228.5-68.6z m339.4-226.3c16.6 25.4 39 44.6 64.4 57-31.2 17.9-64.1 32.6-98.3 43.8 61 47.3 101.9 132.5 101.9 230.1 0 14.9-1.1 29.8-3.3 44.5-46.6-47.6-100.9-87-160.6-116.5-71.7-35.4-148.6-59.1-227.7-70.3 16-33.6 39.3-63.3 68.1-86.8-38.6-11.9-75.7-28.3-110.6-48.8 43.8-52.8 126.7-88.5 221.9-88.5 51.7 0 99.7 10.5 139.8 28.6 1.4 2.3 2.9 4.6 4.4 6.9zM604.8 174c-36.8-12.6-77.9-19.6-121.2-19.6-108.1 0-202.2 43.8-251.8 108.5C152.2 209.39999999999998 116.7 158.39999999999998 103 106c-6.8-28.5-8.4-58-4.7-87.1h556.9c-44 39.3-62.5 99-50.4 155.1zM921 16l-56.7 57.2c37.1 56.7 21.1 132.7-35.6 169.8S696 264 658.9 207.29999999999995c-37.1-56.7-21.1-132.7 35.6-169.8 20-13.1 43.4-20 67.3-20 24.1 0 47.7 7.2 67.7 20.7l56.7-57.1c7.1-7.1 18.6-7.1 25.7 0l9.1 9.2c7.1 7.2 7.1 18.7 0 25.8v-0.1z m-92.8 93.4c-8.5-18-24-31.9-42.9-38.4-7.5-3-15.6-4.4-23.6-4.1-41.3-0.6-75.2 32.4-75.8 73.7-0.6 41.3 32.4 75.2 73.7 75.8s75.2-32.4 75.8-73.7c0.2-11.5-2.4-23-7.4-33.4l0.2 0.1z"  horiz-adv-x="1024" />

    
    <glyph glyph-name="lvsetongdao" unicode="&#59057;" d="M893.2298989 5.008904339999958H211.02825197c-31.74092771 0-57.57553895 25.83461123-57.57553898 57.57553896V654.93938069c0 31.51999319 25.64313465 57.16312782 57.16312784 57.16312784h681.52411439c20.34070589 0 36.82242196 16.48171605 36.82242195 36.82242193s-16.48171605 36.82242196-36.82242195 36.82242197H210.61584083c-72.12776012 0-130.80797172-58.68021163-130.80797171-130.80797174v-592.36966636c0-72.34869465 58.85695924-131.22038285 131.22038285-131.22038285h682.18691798c20.34070589 0 36.82242196 16.48171605 36.82242194 36.82242196 0.01472898 20.34070589-16.48171605 36.83715091-36.80769299 36.8371509zM753.76129354 369.71290028a36.81947615 36.81947615 0 0 1 26.04081679-10.78160515c2.62175645 0 5.27297083 0.2798504 7.89472729 0.8542802l71.27347991 15.64216483c19.86937888 4.35977475 32.43318926 23.99349014 28.07341449 43.86286902-4.35977475 19.86937888-24.00821911 32.43318926-43.86286902 28.07341451l-51.59557763-11.32657699-76.44334797 76.44334796c-1.91476594 1.91476594-3.99155054 3.56441043-6.18616687 4.96366248a36.66924066 36.66924066 0 0 1-10.69323134 6.76059667c-9.97151186 4.10938229-20.69420114 3.52022354-29.73778797-0.73644843-0.94265401-0.2798504-1.885308-0.58915875-2.81323303-0.95738298l-192.62545371-74.77897449c-18.95618282-7.36448439-28.36799387-28.69203118-21.00350947-47.64821401 5.65592402-14.58167909 19.58952848-23.50743418 34.33322622-23.50743417 4.43341959 0 8.94048405 0.81009328 13.31498777 2.5039247l117.66973159 45.67453218-98.22749278-238.10850929-79.68372111 33.99445995c-18.70579035 7.98310108-40.34264547-0.7069905-48.32574657-19.41278086-7.98310108-18.70579035 0.7069905-40.34264547 19.41278085-48.31101759l113.95803145-48.62032594c4.61016724-1.97368181 9.52964279-2.96052272 14.44911838-2.96052272a36.81211167 36.81211167 0 0 1 34.03864684 22.7857147l60.16783745 145.87570679 64.40978049-6.90788636 72.31923671-177.51353172c5.81794267-14.28709972 19.58952848-22.93300439 34.11229168-22.93300439 4.62489619 0 9.33816621 0.88373813 13.8746886 2.72485922 18.83835107 7.67379273 27.8819379 29.16335819 20.20814516 47.98698028L757.48772265 311.23889424000004a36.78265375 36.78265375 0 0 1-30.17965705 22.71206985l-64.8663785 6.95207325 35.0549457 84.98614987 56.26466074-56.17628693zM706.43348764 543.17026695a56.54451115 56.54451115 0 1 1 43.27729529 104.48063378 56.54451115 56.54451115 0 1 1-43.27729529-104.48063378ZM349.00923149 491.78659353c20.34070589 0 36.82242196 16.48171605 36.82242194 36.82242194s-16.48171605 36.82242196-36.82242194 36.82242196h-75.35340427c-20.34070589 0-36.82242196-16.48171605-36.82242195-36.82242196s16.48171605-36.82242196 36.82242195-36.82242194h75.35340427zM191.17360207 400.52590298c0-20.34070589 16.48171605-36.82242196 36.82242193-36.82242197H378.70283254c20.34070589 0 36.82242196 16.48171605 36.82242195 36.82242197s-16.48171605 36.82242196-36.82242195 36.82242193H227.996024c-20.32597692 0-36.82242196-16.48171605-36.82242193-36.82242193zM280.25440524 234.14747165000006h98.4484273c20.34070589 0 36.82242196 16.48171605 36.82242195 36.82242193s-16.48171605 36.82242196-36.82242195 36.82242196h-98.4484273c-20.34070589 0-36.82242196-16.48171605-36.82242197-36.82242196s16.48171605-36.82242196 36.82242197-36.82242193z"  horiz-adv-x="1024" />

    
    <glyph glyph-name="jizhen" unicode="&#59055;" d="M539.2 485.3h-87.5c-8.1-8.8-17.3-16.9-26.8-25h96c6.5 7.7 12.4 16.2 18.3 25zM512.9 798.1c-232 0-420-188-420-420s188-420 420-420 420 188 420 420-188 420-420 420z m-67.1-250.3l47.1-9.6c-4-5.9-7.7-12.1-12.2-18.4h83.5l6.3 1.8 30.5-19.1c-7.7-12.9-18.4-28.3-29.4-42.3h62.9V321H519c16.5-14 33.8-32 42.3-45.6l-34.9-23.5c-8.5 15.1-29.8 37.9-47.4 53.7l23.5 15.4H386.6v34.9H591V375H399.5v32.3H591v18H392.8v11.4c-5.2-3.3-10.7-6.6-16.2-9.9-6.3 10.3-20.2 25.4-30.1 32.3 48.5 24.4 81.6 58.2 99.3 88.7z m-63.6-333.5l-40.8 19.9c13.2 19.5 26.8 47.4 35.3 71l38.6-17.3c-9.2-23.2-21.7-53.4-33.1-73.6z m176.5-5.9h-71c-51.9 0-65.1 11.8-65.1 49.3v44.5h44.5v-44.1c0-9.9 3.7-11.4 24.6-11.4H555c16.9 0 19.5 4.4 21.7 34.2 9.2-6.3 27.9-12.5 39.7-14.7-5.1-46.7-17.6-57.8-57.7-57.8z m83.8 9.6c-4.8 21.3-21 55.5-36 80.9l38.6 15.1c15.8-24.6 33.1-57 39.3-79.4L642.5 218z"  horiz-adv-x="1024" />

    
    <glyph glyph-name="mazui" unicode="&#59056;" d="M734 146.89999999999998l67-67-59.4-59.4 33.3-33.3L927 139.29999999999995l-33.3 33.2-55.8-55.2-66.6 66.5zM174.3 780.8v-74.2L289 591.9l-10.8-122.4 66.6-67.1 48.1 48.2L419 425l-48.1-48.2 26.6-27.1 48.2 48.2 26.1-26.2-48.1-48.1 26.6-26.6 48.6 48.1 25.6-26.1-48.1-48.1 27.1-26.7 48.2 48.2 25.6-26.1-48.1-48.2 27.1-27.1 48.1 48.6 26.1-26.1-48.6-48.1 40.9-41-40.9-40.9 29.6-29.7L864 306.20000000000005l-29.7 29.7-40.9-41L448.8 640l-122.4-11.2zM98 326.70000000000005c0-42 34.3-76.3 76.3-76.3s76.3 34.3 76.3 76.3-48.6 120.8-76.3 171.5C144.6 447.5 98 368.70000000000005 98 326.70000000000005"  horiz-adv-x="1024" />

    
    <glyph glyph-name="geli" unicode="&#59080;" d="M482.63168 174.6944h306.97472v-52.69504H482.63168zM864.01024 148.33664l-37.29408-37.2736-111.9232 111.96416 37.2736 37.2736zM752.5376 36.43392l-37.2736 37.2736 111.94368 111.96416 37.2736-37.2736zM500.71552 317.70624c-117.82144 0-213.66784 95.8464-213.66784 213.66784s95.8464 213.66784 213.66784 213.66784 213.66784-95.8464 213.66784-213.66784-95.8464-213.66784-213.66784-213.66784z m0 372.67456c-87.67488 0-159.0272-71.33184-159.0272-159.0272s71.33184-159.0272 159.0272-159.0272 159.0272 71.33184 159.0272 159.0272-71.35232 159.0272-159.0272 159.0272zM214.17984 22.95808H159.5392c0 188.12928 153.06752 341.15584 341.17632 341.15584 59.41248 0 117.94432-15.52384 169.22624-44.87168l-27.11552-47.4112a286.45376 286.45376 0 0 1-142.09024 37.66272c-158.02368-0.02048-286.55616-128.55296-286.55616-286.53568z"  horiz-adv-x="1024" />

    
    <glyph glyph-name="niantie" unicode="&#59052;" d="M661.504 719.936h-119.04v55.872c0 30.72-26.752 55.872-59.52 55.872h-119.04c-32.704 0-59.52-25.152-59.52-55.872v-55.872h-119.04V592.64h476.16V719.936z m-178.56 0h-119.04V775.68l0.128 0.128h118.848l0.064-0.128v-55.744z m297.6-216.96V691.968c0 15.36-13.376 27.968-29.76 27.968h-59.52v-55.872h29.76V503.04H380.16v-434.112H125.824V664h29.76v55.936h-59.52c-16.384 0-29.76-12.608-29.76-27.968V40.96c0-15.36 13.376-27.968 29.76-27.968H380.16v-75.264h405.824l173.12 154.112V502.976h-178.56z m6.4-486.208v73.088h88.064l-88.064-73.088z m112.704 128.896h-172.16v-152.128H439.68V447.104h459.968v-301.44zM512 384h320v-64H512zM512 256h192v-64H512zM512 128h128v-64H512z"  horiz-adv-x="1024" />

    
    <glyph glyph-name="fuzhi" unicode="&#59053;" d="M782.7456 112.72192h-122.59328v60.12928h122.59328a26.17344 26.17344 0 0 1 26.13248 26.13248V661.62688a26.17344 26.17344 0 0 1-26.13248 26.13248H412.75392c-12.94336 0-26.13248-16.01536-26.13248-31.78496v-72.9088H326.49216V655.9744c0 22.28224 8.76544 45.01504 24.00256 62.34112 16.46592 18.80064 39.15776 29.53216 62.2592 29.53216h369.99168a86.34368 86.34368 0 0 0 86.26176-86.2208v-462.6432a86.34368 86.34368 0 0 0-86.26176-86.26176zM589.6192 601.82528l-0.04096-19.57888 0.08192 19.57888a86.8352 86.8352 0 0 0 86.34368-80.4864l0.24576-6.144v-460.84096a86.8352 86.8352 0 0 0-80.4864-86.34368l-6.144-0.24576h-368.64A86.8352 86.8352 0 0 0 134.5536 48.25088l-0.24576 6.144V515.2768A86.8352 86.8352 0 0 0 214.8352 601.62048l6.18496 0.2048h368.55808z m-0.12288-61.44H221.14304a25.3952 25.3952 0 0 1-24.9856-21.13536l-0.36864-4.096v-460.63616a25.3952 25.3952 0 0 1 21.17632-24.9856l4.096-0.32768h368.4352a25.3952 25.3952 0 0 1 24.9856 21.13536l0.32768 4.096V515.072a25.3952 25.3952 0 0 1-21.58592 25.02656l-3.72736 0.28672zM251.57632 391.86432m29.20448 0l249.0368 0q29.20448 0 29.20448-29.20448l0 0.04096q0-29.20448-29.20448-29.20448l-249.0368 0q-29.20448 0-29.20448 29.20448l0-0.04096q0 29.20448 29.20448 29.20448ZM251.57632 239.24736m29.20448 0l249.0368 0q29.20448 0 29.20448-29.20448l0 0.04096q0-29.20448-29.20448-29.20448l-249.0368 0q-29.20448 0-29.20448 29.20448l0-0.04096q0 29.20448 29.20448 29.20448Z"  horiz-adv-x="1024" />

    
    <glyph glyph-name="registration" unicode="&#59051;" d="M729.7-13.299999999999955h-460c-41.4 0-75 32.2-75 71.8V664.9c0 39.6 33.6 71.8 75 71.8h460c41.4 0 75-32.2 75-71.8v-265.3c0-8.3-6.7-15-15-15s-15 6.7-15 15V664.9c0 23.1-20.2 41.8-45 41.8h-460c-24.8 0-45-18.8-45-41.8v-606.3c0-23.1 20.2-41.8 45-41.8h460c24.8 0 45 18.8 45 41.8V212.5c0 8.3 6.7 15 15 15s15-6.7 15-15v-153.9c0-39.6-33.7-71.9-75-71.9zM649.7 327.20000000000005h-330c-8.3 0-15 6.7-15 15s6.7 15 15 15h330c8.3 0 15-6.7 15-15 0-8.2-6.7-15-15-15zM862.1 358.4L670.5 166.79999999999995c-5.7-5.7-14.9-5.7-20.5 0l-0.7 0.7c-5.7 5.7-5.7 14.9 0 20.5l191.6 191.6c5.7 5.7 14.9 5.7 20.5 0l0.7-0.7c5.7-5.6 5.7-14.8 0-20.5zM529.7 147.60000000000002h-210c-8.3 0-15 6.7-15 15s6.7 15 15 15h210c8.3 0 15-6.7 15-15s-6.7-15-15-15zM304.7 521.9c0 8.3 6.7 15 15 15h90c8.3 0 15-6.7 15-15s-6.7-15-15-15h-90c-8.3 0-15 6.7-15 15zM364.7 461.9c-8.3 0-15 6.7-15 15v90c0 8.3 6.7 15 15 15s15-6.7 15-15v-90c0-8.3-6.7-15-15-15z"  horiz-adv-x="1024" />

    
    <glyph glyph-name="credentials_icon" unicode="&#59050;" d="M1213.54394738 864.0005512h-1033.85192169c-81.53390397-0.08285045-147.60713733-66.15737837-147.6899878-147.68351511v-664.62630494c0.08285045-81.53390397 66.15737837-147.60713733 147.68480963-147.6899878h1033.85968893c81.53390397 0.08285045 147.60843188 66.15737837 147.6899878 147.6835151v664.62630494c-0.08285045 81.53390397-66.15737837 147.60713733-147.6835151 147.68998781zM1287.38311585 51.68943661000003c-0.05307607-40.76630471-33.08580915-73.79903778-73.8469357-73.8534084h-1033.84415446c-40.76112656 0.0608433-73.78609241 33.0909873-73.83787396 73.8469357v664.62242134c0.05178153 40.76630471 33.08580915 73.79903778 73.84693572 73.85211385h1033.84415447c40.76112656-0.0608433 73.78609241-33.0909873 73.83916848-73.84693571zM946.142 361.40999999999997c30.804 26.183 50.735 64.688 50.735 108.152 0 78.633-63.979 142.613-142.613 142.613s-142.601-63.98-142.601-142.613c0-43.464 19.961-81.969 50.766-108.152-63.939-33.32-107.813-100.123-107.813-177.071 0-15.753 12.772-28.524 28.524-28.524 15.753 0 28.524 12.772 28.524 28.524 0 78.633 63.98 142.612 142.612 142.612s142.613-63.979 142.613-142.612c0 0 0 0 0 0 0-15.753 12.772-28.524 28.524-28.524 15.753 0 28.524 12.772 28.524 28.524 0 0 0 0 0 0-0.009 76.948-43.854 143.752-107.795 177.071zM768.702 469.563c0 47.257 38.308 85.563 85.564 85.563s85.563-38.308 85.563-85.563c0-47.257-38.308-85.563-85.563-85.563-47.234 0.052-85.51 38.33-85.563 85.559zM626.087 555.137h-342.264c-15.753 0-28.524-12.772-28.524-28.524s12.772-28.524 28.524-28.524h342.264c15.753 0 28.524 12.772 28.524 28.524s-12.772 28.524-28.524 28.524zM597.563 412.524h-313.74c-15.753 0-28.524-12.772-28.524-28.524s12.772-28.524 28.524-28.524h313.74c15.753 0 28.524 12.772 28.524 28.524s-12.772 28.524-28.524 28.524zM512 269.913h-228.176c-15.753 0-28.524-12.772-28.524-28.524s12.772-28.524 28.524-28.524h228.176c15.753 0 28.524 12.772 28.524 28.524s-12.772 28.524-28.524 28.524z"  horiz-adv-x="1417" />

    
    <glyph glyph-name="huanzhe2" unicode="&#59049;" d="M501.938 350.903c147.892 0 268.23 118.534 268.223 264.289 0 145.747-120.33 264.29-268.222 264.29-147.891 0-268.222-118.585-268.222-264.29 0-145.713 120.33-264.29 268.22-264.29z m110.533-25.45H411.497c-186.76 0-338.664-149.57-338.664-333.473v-19.794c0-96.14 149.473-96.14 338.664-96.14h200.974c181.748 0 338.695 0 338.695 96.14V-8.02c-0.002 183.862-151.93 333.473-338.695 333.473z"  horiz-adv-x="1024" />

    
    <glyph glyph-name="register-search" unicode="&#59047;" d="M651.636 756.364H372.364v-46.546h279.272v46.546z m232.728 0h-69.819v-46.546h69.819c25.693 0 46.545-20.852 46.545-46.545v-93.091H93.091v93.09c0 25.694 20.852 46.546 46.545 46.546h69.819v46.546h-69.819c-51.432 0-93.09-41.705-93.09-93.091v-628.364c0-51.433 41.658-93.09 93.09-93.09h744.728c51.432 0 93.09 41.704 93.09 93.09V663.273c0 51.386-41.658 93.09-93.09 93.09z m46.545-721.455c0-25.693-20.852-46.545-46.545-46.545H139.636c-25.693 0-46.545 20.852-46.545 46.545V523.636h837.818V34.90999999999997z m-640 628.364c19.27 0 34.91 15.639 34.91 34.909V768c0 19.27-15.64 34.91-34.91 34.91S256 787.27 256 768v-69.818c0-19.27 15.64-34.91 34.91-34.91z m442.182 0c19.27 0 34.909 15.639 34.909 34.909V768c0 19.27-15.64 34.91-34.91 34.91s-34.908-15.64-34.908-34.91v-69.818c0-19.27 15.64-34.91 34.909-34.91zM267.636 290.909c32.117 0 58.182 26.066 58.182 58.182 0 32.163-26.065 58.182-58.182 58.182-32.116 0-58.181-26.066-58.181-58.182s26.065-58.182 58.181-58.182z m232.728 0c32.116 0 58.181 26.066 58.181 58.182 0 32.163-26.065 58.182-58.181 58.182-32.117 0-58.182-26.066-58.182-58.182s26.065-58.182 58.182-58.182z m232.727 0c32.116 0 58.182 26.066 58.182 58.182 0 32.163-26.066 58.182-58.182 58.182s-58.182-26.066-58.182-58.182 26.066-58.182 58.182-58.182zM267.636 104.72699999999998c32.117 0 58.182 26.066 58.182 58.182s-26.065 58.182-58.182 58.182c-32.116 0-58.181-26.066-58.181-58.182s26.065-58.182 58.181-58.182z m232.728 0c32.116 0 58.181 26.066 58.181 58.182s-26.065 58.182-58.181 58.182c-32.117 0-58.182-26.066-58.182-58.182s26.065-58.182 58.182-58.182z"  horiz-adv-x="1024" />

    
    <glyph glyph-name="invoice" unicode="&#59046;" d="M292.571 274.28599999999994v73.143H219.43a36.571 36.571 0 0 0 0 73.142h58.002l-83.895 83.822a36.571 36.571 0 1 0 51.785 51.785l83.822-83.895 83.822 83.895a36.571 36.571 0 1 0 51.785-51.785l-83.895-83.822h58.002a36.571 36.571 0 0 0 0-73.142h-73.143v-73.143h73.143a36.571 36.571 0 0 0 0-73.143h-73.143v-36.572a36.571 36.571 0 1 0-73.143 0v36.572H219.43a36.571 36.571 0 0 0 0 73.143h73.142zM731.43 822.857a73.143 73.143 0 0 1 146.285 0h73.143A73.143 73.143 0 0 0 1024 749.7139999999999v-731.428a73.143 73.143 0 0 0-73.143-73.143H73.143A73.143 73.143 0 0 0 0 18.285999999999945V749.7139999999999a73.143 73.143 0 0 0 73.143 73.143h73.143a73.143 73.143 0 1 1 146.285 0h146.286a73.143 73.143 0 1 1 146.286 0h146.286z m-92.746-73.143a146.286 146.286 0 0 0-253.366 0h-39.205a146.286 146.286 0 0 0-253.367 0H73.143v-731.428h877.714V749.7139999999999h-19.602a146.286 146.286 0 0 0-253.367 0h-39.205z m19.603-329.143h182.857a36.571 36.571 0 1 0 0-73.142H658.286a36.571 36.571 0 0 0 0 73.142z m0-146.285H768a36.571 36.571 0 1 0 0-73.143H658.286a36.571 36.571 0 0 0 0 73.143z"  horiz-adv-x="1024" />

    
    <glyph glyph-name="daily-settle" unicode="&#59042;" d="M82.582 664.774h148.644v-280.776H82.582zM809.289 301.41999999999996v66.064h198.193V896h-677.16v-528.516h198.194v-66.065H297.29V483.1h-66.064v-33.033h33.032V301.41999999999996H49.55V450.066h33.032V483.1H16.518v-181.68H0V-128h1024V301.41999999999996H809.289z m-445.934 99.096V862.968H974.45v-462.452H363.355z m198.193-33.032h214.708v-66.065H561.548v66.065z m429.42-462.452H33.032V268.38699999999994h957.932v-363.355h0.004zM66.065-61.934999999999945h891.87v297.29H66.065v-297.29z m33.032 264.258h825.806v-231.226H99.097V202.32299999999998zM512.002 152.77200000000005c-36.436 0-66.065-29.628-66.065-66.064s29.629-66.065 66.065-66.065 66.064 29.629 66.064 66.065-29.632 66.064-66.064 66.064z m0-99.096c-18.216 0-33.032 14.816-33.032 33.032s14.816 33.032 33.032 33.032 33.032-14.816 33.032-33.032-14.816-33.032-33.032-33.032zM115.615 615.2239999999999h82.579v-33.032h-82.58z m0-66.064h82.579v-33.033h-82.58z m280.772-115.612h297.29V829.935h-297.29v-396.387z m33.032 33.033V730.8389999999999h231.226V466.58H429.42zM660.645 796.903v-33.032H429.42V796.903h231.226z m66.065 16.515h214.708v-33.033H726.71z m0-66.065h214.708v-33.032H726.71z m0-66.064h214.708v-33.033H726.71z m132.129-66.065h82.579v-33.032h-82.58z"  horiz-adv-x="1024" />

    
    <glyph glyph-name="yiquxiao" unicode="&#59035;" d="M843.34429 48.296724l96.770841-96.747607a45.632157 45.632157 0 1 0-64.521639-64.521639l-96.747607 96.770841-96.770841-96.770841a45.608922 45.608922 0 0 0-64.498405 64.521639l96.747607 96.747607-96.747607 96.770841a45.608922 45.608922 0 0 0 64.498405 64.498405l96.770841-96.747607 96.747607 96.747607a45.608922 45.608922 0 1 0 64.521639-64.498405zM279.657044 291.908313h232.342956a23.234296 23.234296 0 0 0 0-46.468591H279.657044a23.234296 23.234296 0 0 0 0 46.468591z m371.74873 325.280139H279.657044a23.234296 23.234296 0 0 0 0 46.468592h371.74873a23.234296 23.234296 0 0 0 0-46.468592z m0-185.874365H279.657044a23.234296 23.234296 0 0 0 0 46.468592h371.74873a23.234296 23.234296 0 0 0 0-46.468592z m162.640069-185.874365a46.468591 46.468591 0 0 0-46.468591 46.468591V756.594226a46.468591 46.468591 0 0 1-46.468591 46.468591H209.954157a46.468591 46.468591 0 0 1-46.468592-46.468591v-743.49746a46.468591 46.468591 0 0 1 46.468592-46.468591h278.811547a46.468591 46.468591 0 0 0 0-92.937183H163.485565a92.937183 92.937183 0 0 0-92.937182 92.937183V803.062817a92.937183 92.937183 0 0 0 92.937182 92.937183h604.091687a92.937183 92.937183 0 0 0 92.937183-92.937183v-511.154504a46.468591 46.468591 0 0 0-46.468592-46.468591z"  horiz-adv-x="1024" />

    
    <glyph glyph-name="yiquxiao1" unicode="&#59036;" d="M512 384m-512 0a512 512 0 1 1 1024 0 512 512 0 1 1-1024 0ZM421.290667 384L315.733333 489.557333a64 64 0 0 0 90.453334 90.538667l105.642666-105.557333 105.557334 105.557333a64 64 0 1 0 90.453333-90.453333L602.368 384l105.642667-105.557333a64 64 0 1 0-90.453334-90.538667L511.744 293.461333 406.186667 187.904a64 64 0 0 0-90.453334 90.453333L421.290667 384z"  horiz-adv-x="1024" />

    
    <glyph glyph-name="yiqianming" unicode="&#59037;" d="M0.12642-115.358025l97.34321 292.09284L656.118519 735.446914l194.749629-194.74963-558.648889-558.712099zM871.411358 562.820741L678.241975 755.990123 818.188642 895.87358 1011.358025 702.704198zM180.969877 138.745679l455.174321 455.237531 33.311604-33.311605-455.174321-455.237531zM50.567901-64.790123H1011.358025v-63.209877H50.567901z"  horiz-adv-x="1024" />

    
    <glyph glyph-name="yiqianming1" unicode="&#59041;" d="M1759.952 884.688a96 96 0 0 0 105.52-85.44l66.88-636.48a96 96 0 0 0-85.44-105.52L192.048-116.688a96 96 0 0 0-105.504 85.44l-66.88 636.48a96 96 0 0 0 85.44 105.52L1759.952 884.688z m5.024-47.744L110.096 663.04a48 48 0 0 1-42.944-49.952l0.224-2.816 66.88-636.48a48 48 0 0 1 49.952-42.944l2.816 0.224 1654.88 173.92a48 48 0 0 1 42.944 49.952l-0.224 2.816-66.88 636.48a48 48 0 0 1-49.952 42.944l-2.816-0.224zM1708.016 766.608a48 48 0 0 0 52.752-42.72l53.52-509.184a48 48 0 0 0-42.72-52.768L244 1.392a48 48 0 0 0-52.752 42.72L137.712 553.28a48 48 0 0 0 42.72 52.768L1708 766.608z m1.68-15.904L182.08 590.144a32 32 0 0 1-28.64-32.8l0.16-2.368 53.52-509.2a32 32 0 0 1 32.8-28.64l2.368 0.16 1527.6 160.56a32 32 0 0 1 28.64 32.8l-0.16 2.368-53.52 509.2a32 32 0 0 1-32.8 28.64l-2.368-0.16zM734.672 177.792c15.2 2.368 27.328 8.272 35.6 17.632 6.768 9.216 10.24 38.528 10.08 87.936l-40.256 8.128c1.808-39.2 0.736-62.08-4.048-68-4.864-5.136-10.352-8.032-16.464-8.672l-189.792-19.952c-13.76-1.44-21.344 4.704-22.8 18.448l-10.72 101.968 235.632 24.768-17.168 163.456-291.392-30.624 4-38.192 250.912 26.368 9.152-87.072-195.136-20.512-5.296 50.4-39.728-4.16 20.8-197.824c3.6-34.368 21.44-49.872 54.304-46.416l212.32 22.32z m100.288 239.888a328.24 328.24 0 0 1 26.048 53.312l23.68 2.496c7.168-13.152 13.664-27.136 19.808-41.552l34.496 17.136c-4.016 8.848-9.264 18.336-14.976 28.544l44.688 4.704-3.68 35.136-92.8-9.76c1.552 7.12 3.472 14.656 4.96 22.528l-39.456 4.352c-6.096-33.84-19.232-66.88-39.808-98.784l37.04-18.112z m240.272 28.336l34.784 17.952a377.68 377.68 0 0 1-19.872 31.12l50.8 5.328-3.696 35.136-105.024-11.04c1.568 7.12 3.104 14.624 4.592 22.496l-38.688 4.432a240.976 240.976 0 0 0-29.664-81.504l35.888-18.24a297.28 297.28 0 0 1 16.672 36.128l28.256 2.96a520.4 520.4 0 0 0 25.952-44.768z m10.08-99.712l-2.8 26.736c17.984-5.824 37.088-11.168 57.664-15.952l15.856 36.416c-63.872 12.592-120.864 33.248-171.712 61.504l-24.448-2.576c-40.288-35.52-91.776-67.184-155.264-95.088l23.136-32.704a775.312 775.312 0 0 1 53.44 28l2.88-27.488 201.264 21.152z m-20.032 32.64l-169.552-17.808c31.2 19.104 57.648 39.264 79.744 60.496 26.832-16.48 56.896-30.688 89.808-42.672z m-83.168-130.752l34.592 12.528c-9.76 26.768-19.968 50.4-30.992 70.88l-35.424-15.696a479.648 479.648 0 0 0 31.84-67.712z m179.36-27.472l-3.904 37.04-72.96-7.68a439.008 439.008 0 0 1 23.808 78.576l-40.496 6.944c-6.784-34.688-15.616-64.576-26.08-90l-209.648-22.048 3.888-37.04 325.376 34.208z m-262.208 14.912l34.976 12.56c-11.136 25.072-23.136 47.36-35.952 66.496l-35.04-15.664a395.872 395.872 0 0 0 36-63.392z m433.136-6.608l-2.08 19.856 157.728 16.592 2.08-19.872 40.48 4.256-17.696 168.416-141.68-14.88c58.528 38.192 97.552 82.064 116.256 131.904l-3.696 35.136-140.544-14.768c5.184 9.44 9.6 18.768 13.232 28.416L1312 584.816c-18.432-41.328-58.48-79.12-119.84-112.608l30.4-31.936c37.712 23.264 67.92 48.064 91.392 74.48l128.32 13.488c-13.312-27.664-35.68-53.568-66.784-77.296-17.024 11.328-39.168 23.68-66.048 37.072l-32.512-25.04c26.304-11.52 48.32-22.72 65.744-34.016-40-23.52-90.72-44.288-152.528-62.368l24.64-36.016a1164.896 1164.896 0 0 1 63.84 24.464l13.68-130.24 40.096 4.224z m151.584 75.008l-157.728-16.576-7.664 72.96 157.728 16.56 7.68-72.944z"  horiz-adv-x="1952" />

    
    <glyph glyph-name="yiqianming2" unicode="&#59244;" d="M511.8976-127.453867C229.9904-127.453867 0.699733 101.717333 0.699733 383.744 0.682667 665.787733 229.9904 894.976 511.8976 894.976s511.214933-229.307733 511.214933-511.214933c0-281.890133-229.307733-511.197867-511.214933-511.197867z m0 1007.2576C238.421333 879.803733 15.872 657.237333 15.872 383.744c0-273.476267 222.549333-496.042667 496.042667-496.042667 273.493333 0 496.059733 222.5664 496.059733 496.042667C1007.957333 657.237333 785.390933 879.803733 511.8976 879.803733z m0-972.407466c-262.6048 0-476.347733 213.76-476.347733 476.3648 0 262.587733 213.742933 476.3648 476.347733 476.3648 262.6048 0 476.3648-213.777067 476.3648-476.3648 0-262.6048-213.76-476.3648-476.3648-476.3648z m0 948.309333c-260.130133 0-471.944533-211.677867-471.944533-471.9616 0-260.266667 211.677867-471.944533 471.944533-471.944533 260.266667 0 471.9616 211.677867 471.9616 471.944533 0 260.266667-211.8144 471.9616-471.9616 471.9616z m0-154.794667c-172.817067 0-314.026667-139.025067-317.269333-311.1936l-23.9616-13.994666c-0.136533 2.730667-0.136533 5.188267-0.136534 7.901866 0 188.1088 153.1392 341.230933 341.248 341.230934 63.351467 0 122.948267-17.493333 173.841067-47.6672l-23.9616-13.994667a312.490667 312.490667 0 0 1-149.76 37.717333z m15.4112 72.277334c-0.375467-0.392533-0.631467-0.904533-0.512-1.297067l6.3488-23.4496c0.136533-0.512-0.119467-0.648533-0.512-0.392533l-20.343467 13.482666c-0.512 0.256-1.024 0.256-1.416533 0l-20.48-13.346133c-0.392533-0.256-0.648533-0.136533-0.512 0.375467l6.485333 23.4496c0.119467 0.529067 0 1.041067-0.512 1.297066L476.7744 788.48c-0.392533 0.256-0.256 0.631467 0.273067 0.631467l24.337066 1.041066c0.546133 0.017067 1.024 0.392533 1.1776 0.904534l8.8064 22.801066c0.136533 0.512 0.512 0.512 0.648534 0l8.5504-22.920533c0.119467-0.512 0.785067-0.9216 1.024-0.9216l24.3712-1.160533c0.512 0 0.648533-0.256 0.256-0.648534l-18.926934-15.018666zM323.925333 711.133867c-0.512 0-0.904533-0.273067-1.160533-0.785067l-11.025067-21.76c-0.256-0.392533-0.512-0.392533-0.648533 0.136533l-6.075733 23.569067a1.655467 1.655467 0 0 1-1.041067 1.024l-24.098133 3.754667c-0.512 0.1536-0.512 0.4096-0.136534 0.6656l20.48 13.090133a1.570133 1.570133 0 0 1 0.648534 1.28L296.96 756.224c-0.136533 0.512 0.119467 0.648533 0.512 0.273067l18.7904-15.428267c0.392533-0.256 1.024-0.392533 1.4336-0.136533l21.76 11.025066c0.392533 0.256 0.648533 0 0.512-0.392533l-9.0624-22.664533c-0.136533-0.512 0-1.041067 0.256-1.297067l17.237333-17.237333c0.375467-0.392533 0.256-0.648533-0.256-0.512l-24.234666 1.297066z m-138.496-137.728a1.365333 1.365333 0 0 1-0.768-1.160534l1.297067-24.354133c0-0.512-0.256-0.648533-0.648533-0.256l-16.981334 17.3568c-0.392533 0.392533-1.024 0.512-1.297066 0.392533l-22.801067-8.8064c-0.512-0.136533-0.648533 0-0.375467 0.512l11.144534 21.640534a1.399467 1.399467 0 0 1-0.136534 1.416533l-15.291733 18.909867c-0.256 0.392533-0.136533 0.6656 0.392533 0.529066l23.9616-4.010666c0.512 0 0.904533 0.136533 1.297067 0.648533l13.2096 20.462933c0.273067 0.375467 0.512 0.375467 0.648533-0.136533l3.6352-24.081067c0.136533-0.529067 0.512-0.9216 0.904534-1.041066l23.4496-6.229334c0.512-0.119467 0.512-0.392533 0.119466-0.631466l-21.76-11.144534z m326.485334-506.914134c172.817067 0 313.890133 139.008 317.269333 311.176534l23.9616 13.994666c0.119467-2.730667 0.119467-5.188267 0.119467-7.901866-0.119467-188.1088-153.122133-341.248-341.367467-341.248a340.3776 340.3776 0 0 0-173.858133 47.684266l23.978666 13.994667a314.88 314.88 0 0 1 149.879467-37.717333z m-15.701334-71.645866c0.4096 0.392533 0.529067 0.904533 0.4096 1.297066l-6.621866 23.313067c-0.119467 0.512 0.136533 0.648533 0.512 0.392533l20.48-13.090133c0.512-0.256 1.024-0.256 1.4336 0l20.206933 13.602133c0.392533 0.256 0.648533 0.136533 0.512-0.375466l-6.0928-23.586134c-0.1024-0.512 0.1024-1.024 0.512-1.297066l19.063467-14.8992c0.375467-0.256 0.256-0.512-0.136534-0.648534l-24.354133-1.28c-0.512 0-1.024-0.392533-1.024-0.9216l-8.430933-22.920533c-0.136533-0.512-0.512-0.512-0.648534 0l-8.942933 22.801067a1.6384 1.6384 0 0 1-1.160533 0.904533l-24.490667 0.768c-0.512 0-0.648533 0.256-0.256 0.648533l19.0464 15.291734z m203.400534 62.0544c0.512 0 1.041067 0.256 1.160533 0.785066l10.752 21.879467c0.273067 0.392533 0.512 0.392533 0.6656 0l6.3488-23.4496c0.119467-0.512 0.648533-0.904533 1.024-1.024l24.098133-3.3792c0.512-0.119467 0.512-0.392533 0.136534-0.648533l-20.206934-13.346134c-0.392533-0.256-0.648533-0.904533-0.648533-1.28l4.266667-23.978666c0.136533-0.512-0.136533-0.648533-0.512-0.375467l-18.909867 15.1552c-0.392533 0.256-1.041067 0.392533-1.4336 0.119467l-21.367467-11.264c-0.392533-0.256-0.648533 0-0.512 0.392533l8.669867 22.801067c0.136533 0.512 0 1.024-0.392533 1.28l-17.6128 16.981333c-0.392533 0.392533-0.256 0.648533 0.256 0.648533l24.234666-1.297066z m138.376533 137.8304a1.399467 1.399467 0 0 1 0.768 1.1776l-1.553067 24.234666c0 0.512 0.256 0.631467 0.512 0.238934l17.373867-17.1008c0.375467-0.375467 1.024-0.512 1.28-0.256l22.6816 9.0624c0.512 0.136533 0.631467 0 0.392533-0.512l-11.025066-21.76a1.416533 1.416533 0 0 1 0.136533-1.416534l15.547733-18.670933c0.392533-0.375467 0.119467-0.631467-0.256-0.512l-24.098133 3.754667c-0.512 0-1.024-0.119467-1.297067-0.648534l-12.834133-20.5824c-0.256-0.392533-0.512-0.392533-0.631467 0.119467l-3.8912 23.978667a1.467733 1.467733 0 0 1-0.9216 1.024l-23.552 5.8368c-0.529067 0.119467-0.529067 0.375467-0.1536 0.648533l21.504 11.383467zM430.336 223.880533c7.168 4.778667 11.793067 10.1888 13.431467 16.196267 1.4848 7.099733-3.345067 21.879467-14.677334 44.714667l-14.592-3.5328c10.5472-19.950933 15.018667-32.546133 13.397334-37.819734-1.365333-3.6864-4.2496-6.8608-8.448-9.386666l-88.132267-52.957867c-8.072533-4.846933-14.5408-3.242667-19.182933 4.488533l-31.112534 51.780267 110.250667 66.2528-42.205867 70.212267-129.8944-78.045867 7.3728-12.288 117.0944 70.3488 27.528534-45.824-97.4336-58.538667-15.598934 25.992534-12.629333-7.594667 55.364267-92.16c8.6528-14.404267 20.104533-17.5616 34.304-9.0112l95.163733 57.173333z m-7.68 138.018134c1.365333 10.8544 1.604267 21.998933 0.887467 33.518933l13.346133 8.021333c7.2704-4.949333 14.2336-10.581333 20.9408-16.571733l9.045333 11.1616c-4.898133 4.215467-10.837333 8.533333-17.339733 12.987733l25.275733 15.189334-6.7584 11.246933-46.165333-27.7504a261.444267 261.444267 0 0 1-3.242667 15.735467l-13.858133-4.744534c4.778667-19.114667 5.7344-38.6048 2.8672-58.487466l15.018667-0.3072z m114.432 70.434133l9.045333 11.1616a152.149333 152.149333 0 0 1-20.411733 13.312l27.904 16.759467-6.741333 11.246933-51.268267-30.805333c-1.1264 5.051733-2.2528 10.103467-3.584 15.530666l-13.704533-4.6592c4.539733-15.906133 5.973333-31.778133 4.471466-47.957333l14.813867-0.426667c0.512 7.4752 0.375467 15.274667-0.170667 23.313067l15.291734 9.181867c8.2944-5.051733 16.4352-10.666667 24.354133-16.657067z m52.1728-27.1872l-0.392533 14.574933c-34.0992-8.072533-66.986667-10.615467-98.3552-7.7312l-8.072534-4.846933c-11.2128-27.050667-29.013333-54.698667-53.077333-83.029333l12.509867-7.304534c24.098133 29.064533 41.079467 56.490667 50.8416 82.397867 29.8496-3.566933 61.8496-1.536 96.546133 5.9392z m-27.1872-18.005333l-6.741333 11.229866-91.118934-54.7328 6.7584-11.246933 91.101867 54.749867z m-22.101333-72.533334l9.437866 9.728a301.226667 301.226667 0 0 1-31.880533 28.381867l-9.3696-10.632533c11.093333-8.157867 21.640533-17.339733 31.812267-27.477334z m87.637333 28.279467l-7.0656 11.776-37.7344-22.698667a229.154133 229.154133 0 0 1-6.775467 49.4592l-14.301866-4.0448c4.6592-19.677867 7.236267-37.4784 7.560533-53.521066l-96.904533-58.231467 7.0656-11.776 148.155733 89.0368z m-124.7232-52.48l9.6256 9.847467a239.530667 239.530667 0 0 1-33.416533 24.593066l-9.216-10.5472a202.24 202.24 0 0 0 33.006933-23.893333z m203.8272 92.603733l-6.212267 10.359467 78.472534 47.1552 6.212266-10.359467 12.817067 7.697067-44.509867 74.069333-73.216-43.963733c23.842133 35.089067 34.6624 68.369067 32.853334 100.010667l-6.741334 11.229866-68.471466-41.130666c0.682667 6.843733 0.8704 13.653333 0.512 20.616533l-14.813867-6.7584c0.648533-24.9344-10.052267-52.872533-32.3584-83.712l14.967467-5.819733c13.312 19.968 22.528 38.8608 27.818666 57.088l64.938667 39.031466c0.4096-19.3536-5.102933-39.6288-16.554667-61.098666-11.4688 1.962667-26.436267 3.003733-44.714666 3.242666l-6.775467-13.380266c17.8688 0.4608 32.6144-0.238933 44.253867-2.082134-14.08-22.3232-34.5088-45.568-61.0816-70.144l13.960533-8.106666a566.391467 566.391467 0 0 1 28.7744 30.429866l37.239467-61.952 12.629333 7.5776z m64.8704 69.802667l-78.472533-47.1552-23.842134 39.68 78.472534 47.138133 23.842133-39.662933z"  horiz-adv-x="1024" />

    
    <glyph glyph-name="check2" unicode="&#59025;" d="M574.116299 109.263608 1238.811249 847.482138C1272.390222 884.775365 1329.414799 888.172282 1366.75664 854.549538 1403.840015 821.159516 1406.731043 763.915259 1373.10189 726.566301L655.118888-70.834607C653.072421-73.716875 650.835807-76.514337 648.407938-79.210759 615.017957-116.29409 558.292155-119.652019 521.195664-86.250188L72.778218 317.506694C35.910826 350.702242 32.859041 407.415981 66.481825 444.757866 99.871807 481.841197 156.597563 485.199166 193.694055 451.797335L574.116299 109.263608Z"  horiz-adv-x="1446" />

    
    <glyph glyph-name="xuanzhong" unicode="&#59026;" d="M535.770344-121.621782c-51.025747 0-102.051494 19.134655-140.320804 63.782184L19.134655 356.744597C-6.378218 382.257471 0 420.526781 25.512874 446.039655s63.782184 19.134655 89.295057-6.378219l376.314885-414.584195c25.512874-25.512874 63.782184-25.512874 89.295057-6.378218l6.378218 6.378218L1326.669424 873.380286c25.512874 25.512874 63.782184 31.891092 89.295057 6.378219 25.512874-25.512874 31.891092-63.782184 6.378219-89.295058L676.091149-57.839598l-12.756437-12.756437c-38.26931-31.891092-82.916839-51.025747-127.564368-51.025747z"  horiz-adv-x="1466" />

    
    <glyph glyph-name="xuanzhong1" unicode="&#59030;" d="M874.497076 747.22361C674.578801 944.817253 349.130447 944.817253 149.212172 747.22361-48.381471 547.305335-48.381471 221.856981 149.212172 21.938706c199.918275-199.918275 523.041998-199.918275 722.960273 0 199.918275 199.918275 199.918275 525.366629 2.324631 725.284904z m-34.869467-690.415437c-181.321226-181.321226-476.549376-181.321226-657.870601 0S0.435782 531.032917 184.081639 712.354143C365.402865 896 658.306383 896 839.627609 712.354143c183.645857-181.321226 183.645857-474.224745 0-655.54597zM795.459618 593.797957L442.115691 217.207719 228.24963 431.07378c-9.298524 9.298524-23.246311 9.298524-32.544836 0-9.298524-9.298524-9.298524-23.246311 0-32.544836l230.138479-230.138479c9.298524-9.298524 23.246311-9.298524 32.544836 0l369.616345 392.862656c9.298524 9.298524 9.298524 23.246311 0 32.544836-9.298524 9.298524-23.246311 9.298524-32.544836 0z"  horiz-adv-x="1024" />

    
    <glyph glyph-name="xuanzhong2" unicode="&#59040;" d="M0 255.1C94.2 311.3 188.4 367.5 282.6 423.8c45.5-87.1 91.2-174.4 136.7-261.5 0.1-0.1 118.7 250.8 222.1 389.5C751.3 699.3 842.9 809.6 993.7 869c-16.3-46.4-20.8-89.6-20.8-162 2.6-57.5 13.3-112.7 50.7-199.5-72.7-33.5-140.7-76.2-175.6-106.3-48.3-41.7-92.5-89.6-136.8-136C611.3 151 559.6 86 437-100.5c-90.9 109.9-115.3 132.2-186.3 194.1C164.8 168.4 116.6 198.4 0 255.1z m0 0"  horiz-adv-x="1024" />

    
    <glyph glyph-name="yingyong-" unicode="&#59031;" d="M512 832C264.57 832 64 631.43 64 384s200.58-448 448-448 448 200.58 448 448S759.42 832 512 832z m256-512H256c-35.2 0-64 28.8-64 64s28.8 64 64 64h512c35.2 0 64-28.8 64-64s-28.8-64-64-64z"  horiz-adv-x="1024" />

    
    <glyph glyph-name="weixuanzhong" unicode="&#59032;" d="M516.313747 834.022437c247.424182 0 448.001407-200.577225 448.001407-448.001407S763.73793-61.979354 516.313747-61.979354 68.31234 138.596847 68.31234 386.02103 268.889565 834.022437 516.313747 834.022437z m0-52.706409c-218.315214 0-395.294998-176.979784-395.294998-395.294998s176.979784-395.294998 395.294998-395.294998 395.294998 176.979784 395.294998 395.294998S734.628962 781.316028 516.313747 781.316028z"  horiz-adv-x="1024" />

    
    <glyph glyph-name="xuanzhong3" unicode="&#59034;" d="M512 896c282.752 0 512-229.248 512-512s-229.248-512-512-512S0 101.24800000000005 0 384 229.248 896 512 896z m0-85.333333C276.352 810.666667 85.333333 619.648 85.333333 384s191.018667-426.666667 426.666667-426.666667 426.666667 191.018667 426.666667 426.666667S747.648 810.666667 512 810.666667z m0-213.333334a213.333333 213.333333 0 1 0 0-426.666666 213.333333 213.333333 0 0 0 0 426.666666z"  horiz-adv-x="1024" />

    
    <glyph glyph-name="arrow-left" unicode="&#59024;" d="M820.593365 371.16509599999995c0.510916 0.510916 0.510916 1.532749 1.021833 2.554581s0.510916 1.532749 1.021832 2.554581c0 0.510916 0.510916 1.532749 0.510916 2.554581s0.510916 1.532749 0.510916 2.55458v2.554581 2.554581c0 1.021832-0.510916 1.532749-0.510916 2.554581s-0.510916 1.532749-0.510916 2.554581-0.510916 1.532749-1.021832 2.554581-0.510916 1.532749-1.021833 2.554581c-0.510916 0.510916-1.021832 1.532749-1.021832 2.043664-0.510916 1.021832-1.021832 1.532749-1.532748 2.043665 0 0 0 0.510916-0.510917 0.510916l-1.532748 1.532749-1.532749 1.532748-567.116946 485.37036c-10.72924 9.196491-27.078557 8.174659-35.764132-2.554581-9.196491-10.72924-8.174659-27.078557 2.554581-35.764132L758.772509 382.91616799999997 214.135874-83.03937699999994c-10.72924-9.196491-11.751072-25.545808-2.554581-35.764132 5.109162-6.130994 12.261988-8.685575 19.414815-8.685575 6.130994 0 11.751072 2.043665 16.349317 6.130994l567.116946 485.37036 1.532749 1.532748c0.510916 0.510916 1.021832 0.510916 1.021832 1.021833 0 0 0 0.510916 0.510916 0.510916 0.510916 0.510916 1.021832 1.532749 1.532749 2.043664 1.021832 0.510916 1.021832 1.021832 1.532748 2.043665z"  horiz-adv-x="1024" />

    
    <glyph glyph-name="ccgl-pandianjilu-5" unicode="&#59164;" d="M681.6 831.36h-504.32c-31.105 0-56.32-25.215-56.32-56.32v-783.36c0-31.105 25.215-56.32 56.32-56.32h670.72c31.105 0 56.32 25.215 56.32 56.32v616.96h-222.72v222.72zM458.88 723.84h56.32v-122.88h-56.32l-0 122.88zM346.24 723.84h56.32v-245.76h-56.32v245.76zM233.6 723.84h56.32v-368.64h-56.32l-0 368.64zM739.585 412.58c8.625-8.626 13.375-20.095 13.375-32.294 0-12.201-4.75-23.671-13.375-32.296l-262.588-262.592c-5.596-5.608-12.632-9.687-20.328-11.781l-126.756-34.271c-3.859-1.048-7.881-1.585-11.921-1.585-12.122 0-23.963 4.946-32.486 13.572-11.546 11.684-15.935 28.755-11.457 44.554l35.543 125.428c2.122 7.491 6.157 14.359 11.668 19.862l262.568 262.572c8.627 8.627 20.095 13.379 32.293 13.379 12.193 0 23.66-4.748 32.288-13.367l91.176-91.181zM737.92 831.36v-166.4h166.4zM497.305 185.36l-76.108 76.108 194.916 194.916 76.108-76.108-194.916-194.916zM363.021 203.288l-29.66-104.669 105.82 28.611 18.31 18.312-76.108 76.11z"  horiz-adv-x="1024" />

    
    <glyph glyph-name="jichushezhi" unicode="&#59033;" d="M923.4 312.8c-2.4-1-4.6-2.6-6.4-4.4l-16.8-17.6c-8.4-8.2-21-10-31.6-4.8l-33.2 14.2c-11 4.4-18.6 14.8-19 26.8v24.8c0.2 11.2-8.8 20.4-20 20.6h-39.6c-11 0-20-9.2-20-20.6v-24.8c-0.4-12-7.8-22.4-19-26.8l-33.2-14.2c-10.4-5.2-23.2-3.2-31.6 4.8l-17 17.6c-3.6 3.8-8.8 6-14 6-5.2 0-10.4-2.2-14-6l-28.2-29.2c-7.8-8.2-7.8-21 0-29.2l16.8-17.4c7.8-8 10-22.8 4.8-32.8l-13.6-34.6c-3.8-11.2-14-19-25.8-19.8h-23.8c-11.2-0.2-20-9.4-19.8-20.6v-41.2c0-11.4 9-20.6 20-20.6h23.8c11 0 22.4-9 25.8-19.8l13.6-34.6c5-10.8 3.2-23.8-4.6-32.8l-17-17.4c-7.8-8.2-7.8-21 0-29.2l28.2-29.2c2.4-2.6 5.4-4.4 8.6-5.2v-6.2H97.6c-12-0.2-23.6 4.6-32.2 13-8.6 8.4-13.4 20-13.4 32V573.2h871.4v-260.4z m47.2-188.6c8.2 0 15-7 15-15.8v-31.6c0-8.6-6.8-15.6-15-15.6h-18.2c-9-0.6-16.8-6.4-19.6-15l-10.4-26.4c-3.8-8.2-2.4-18 3.4-25l12.8-13.4c6-6.2 6-16 0-22.2l-21.4-22.2c-2.8-3-6.6-4.6-10.8-4.6-4 0-8 1.6-10.8 4.6l-12.8 13.4c-6.4 6.2-16.2 7.6-24 3.6l-25.4-10.8c-8.4-3.4-14.2-11.4-14.4-20.4v-18.8c0-8.6-6.8-15.6-15.2-15.6H774c-8.6 0.2-15.2 7.2-15.2 15.6v18.8c-0.2 9-6 17.2-14.4 20.4l-25.4 10.8c-8 4-17.6 2.6-24-3.6l-12.8-13.4c-2.8-3-6.6-4.6-10.8-4.6-4 0-8 1.6-10.8 4.6l-21.4 22.2c-5.8 6.2-5.8 16 0 22.2l12.8 13.4c6 7 7.4 16.6 3.6 25l-10.4 26.4c-2.8 8.6-10.6 14.4-19.6 15h-18.2c-8.6 0.2-15.4 7.2-15.2 15.8v31.4c0 8.6 6.8 15.6 15.2 15.6h18.2c9 0.6 16.8 6.4 19.6 15l10.4 26.4c3.8 8.2 2.4 18-3.6 25l-12.8 13.4c-5.8 6.2-5.8 16 0 22.2l21.4 22.2c2.8 3 6.6 4.6 10.8 4.6 4 0 8-1.6 10.8-4.6l12.8-13.4c6.4-6.2 16-7.8 24-3.8l25.2 10.8c8.4 3.2 14.2 11.4 14.4 20.4v18.8c0 8.6 6.8 15.6 15.2 15.6H804c8.2 0 15.2-7 15.2-15.6v-18.8c0-8.8 6.6-17.8 14.4-20.4l25.4-10.8c7.2-4 18.2-2.4 24 3.8l12.8 13.4c2.8 3 6.6 4.6 10.8 4.6 4 0 8-1.6 10.8-4.6l21.4-22.2c5.8-6.2 5.8-16 0-22.2l-12.8-13.4c-6-6.8-7.4-16.6-3.4-25l10.4-26.4c2.4-8.2 11.2-15 19.6-15h18z m-181.4-110c41.8 0 75.6 35.2 75.6 78.6 0 43.4-33.8 78.6-75.6 78.6s-75.6-35.2-75.6-78.6c0-43.4 33.8-78.6 75.6-78.6zM176.4 424.4c0-13 11-24.2 24.6-24.2h324.4c6.4 0 12.8 2.4 17.4 7 4.6 4.6 7.2 10.8 7.2 17.2 0 13-11 24.2-24.6 24.2H201c-6.4 0-12.8-2.4-17.4-7-4.6-4.4-7.2-10.6-7.2-17.2z m0-186.8c0-13 11-24.2 24.4-24.2h262.4c6.4-0.2 12.8 2.4 17.4 7 4.6 4.6 7.2 10.8 7 17.4 0 13-11 24.2-24.4 24.2H200.8c-6.4 0.2-12.8-2.4-17.4-7-4.4-4.6-7-10.8-7-17.4z m0-186.6c0-13 11-24.2 24.4-24.2h138c13.4 0 24.2 10.8 24.4 24.2 0 13-11 24.2-24.4 24.2h-138c-13.4 0-24.2-10.8-24.4-24.2zM566.6 822.2c21.4 37.2 61.6 62.2 108 62.2 46.2 0 86.6-24.8 108-62.2H878c25.2 0 45.6-20.4 45.6-45.6v-141H52V776.6c0 25.2 19.8 45.6 45.6 45.6h95.4c21.4 37.2 61.6 62.2 108 62.2 46.2 0 86.6-24.8 108-62.2h157.6zM238.8 760c0-34.6 27.8-62.2 62.2-62.2 34.6 0 62.2 27.8 62.2 62.2 0 34.6-27.8 62.2-62.2 62.2-34.6 0-62.2-27.8-62.2-62.2z m373.4 0c0-34.6 27.8-62.2 62.2-62.2 34.6 0 62.2 27.8 62.2 62.2 0 34.6-27.8 62.2-62.2 62.2-34.6 0-62.2-27.8-62.2-62.2z m0 0"  horiz-adv-x="1024" />

    
    <glyph glyph-name="linchuangyiyuan" unicode="&#59291;" d="M307.2 13.688889c0 25.244444 8.177778 62.933333 47.377778 99.377778 4.533333 4.177778 9.333333 8.266667 14.488889 12.355555V284.177778H170.755556V482.488889h198.311111V680.8h198.311111v-90.222222h210.666666c27.377778 0 49.866667-21.333333 51.555556-48.266667l15.466667-145.244444c4.266667-16.355556 6.4-33.155556 6.4-50.222223 0-52.711111-20.355556-102.222222-57.333334-139.555555-4.266667-4.355556-8.711111-8.444444-13.333333-12.266667 28.355556-6.755556 56.088889-15.377778 80.888889-25.422222 39.288889-15.911111 71.022222-34.933333 94.222222-56.533333 0.977778-0.888889 1.955556-1.866667 2.933333-2.755556V730.4c0 54.577778-44.622222 99.111111-99.111111 99.111111H165.6c-54.577778 0-98.666667-44.622222-98.666667-99.111111l-0.444444-694.044444c0-54.488889 44.622222-99.111111 99.111111-99.111112h141.511111v76.444445zM801.244444 388.888889l-16 150.044444c0 4-3.288889 7.288889-7.288888 7.288889H531.822222c-4 0-7.288889-3.288889-7.288889-7.288889l-16.355555-153.777777c-3.111111-12.266667-4.8-25.066667-4.8-38.222223 0-1.866667 0-3.733333 0.088889-5.511111l-0.088889-0.977778c0-0.622222 0.088889-1.155556 0.266666-1.777777 4.266667-80.711111 70.488889-144.8 151.555556-144.8 83.822222 0 151.822222 68.533333 151.822222 153.066666 0 14.488889-2.044444 28.533333-5.777778 41.955556zM731.555556 402.133333h-46.4v-46.4h-60.444445v46.4h-46.4v60.444445h46.4v46.4h60.444445v-46.4H731.555556v-60.444445zM655.2 166.844444c-101.333333 0-303.555556-51.288889-303.555556-153.066666v-76.533334h607.2v76.533334c0 101.777778-202.311111 153.066667-303.644444 153.066666z"  horiz-adv-x="1024" />

    
    <glyph glyph-name="shenhe5" unicode="&#59088;" d="M1024-128h-455.111111a56.888889 56.888889 0 0 0-56.888889 56.888889v113.777778h568.888889v-113.777778a56.888889 56.888889 0 0 0-56.888889-56.888889z m0 170.666667h-455.111111s67.128889 10.24 113.777778 56.888889H455.111111v-227.555556H113.777778a113.777778 113.777778 0 0 0-113.777778 113.777778V782.222222a113.777778 113.777778 0 0 0 113.777778 113.777778h568.888889a113.777778 113.777778 0 0 0 113.777777-113.777778v-284.444444a170.666667 170.666667 0 0 1-170.666666-170.666667c0-44.771556 17.578667-85.162667 45.795555-115.598222A444.529778 444.529778 0 0 0 625.777778 156.444444c-46.648889-46.648889-113.777778-56.888889-113.777778-56.888888h170.666667c34.872889 34.872889 65.024 81.749333 85.674666 117.703111A113.550222 113.550222 0 0 0 796.444444 440.888889a113.550222 113.550222 0 1 0 28.046223-223.687111c20.536889-35.84 50.631111-82.545778 85.731555-117.646222 45.511111-45.511111 113.777778-56.888889 113.777778-56.888889zM398.222222 725.333333H170.666667a56.888889 56.888889 0 0 1 0-113.777777h227.555555a56.888889 56.888889 0 0 1 0 113.777777z m113.777778-227.555555H170.666667a56.888889 56.888889 0 0 1 0-113.777778h341.333333a56.888889 56.888889 0 0 1 0 113.777778z m0-341.333334a56.888889 56.888889 0 0 1 0 113.777778H170.666667a56.888889 56.888889 0 0 1 0-113.777778h341.333333z"  horiz-adv-x="1080" />

    
    <glyph glyph-name="tongji" unicode="&#59019;" d="M681.728 408.832H780.8l202.496 174.336a594.176 594.176 0 0 1-29.952 59.904L684.8 412.672l-4.096-3.584M535.808 895.488v-82.176L618.24 884.48A515.072 515.072 0 0 1 535.808 895.488m423.68-486.4l58.624 51.2a512 512 0 0 1-16.384 71.68L859.904 409.856H960M792.832 813.568l-256-220.672v-86.272l309.504 267.008a573.696 573.696 0 0 1-52.992 39.936m-113.92 56.32l-142.592-122.88v-86.272l208.896 179.2a494.592 494.592 0 0 1-66.304 28.928M925.44 686.848a510.208 510.208 0 0 1-41.472 49.408L536.832 437.76v-28.928h66.048l322.56 278.016M488.448 896A512 512 0 0 1 108.8 69.376L488.448 396.8V896m33.024-535.552L140.8 32.768a512 512 0 0 1 883.456 327.68H521.472"  horiz-adv-x="1024" />

    
    <glyph glyph-name="menzhen" unicode="&#59021;" d="M950.296823 568.78658a251.447189 251.447189 0 0 0 0-355.601898L682.746993-54.342371999999955a251.447189 251.447189 0 0 0-355.601898 0l-253.49703 253.49703a251.447189 251.447189 0 0 0 0 355.601898L341.106791 822.260834a251.447189 251.447189 0 0 0 355.601898 0zM809.951028 331.64272800000003v104.769662a44.754866 44.754866 0 0 1-45.848115 45.848115h-150.595001v150.526673a44.754866 44.754866 0 0 1-45.848115 45.848115h-111.329154a44.754866 44.754866 0 0 1-45.848115-45.848115v-143.989957h-150.595001a44.754866 44.754866 0 0 1-45.848115-45.848115v-111.306378a44.754866 44.754866 0 0 1 45.848115-45.848115h150.617777v-150.617777a44.754866 44.754866 0 0 1 45.848115-45.848115h104.769662a44.754866 44.754866 0 0 1 45.848115 45.848115V285.749061h150.617777a55.596249 55.596249 0 0 1 52.362055 45.893667z"  horiz-adv-x="1024" />

    
    <glyph glyph-name="yaopin1" unicode="&#59230;" d="M824.905143 639.926857H735.524571c49.298286 0 89.380571 38.180571 89.380572 85.357714V810.569143C824.905143 857.819429 784.822857 896 735.524571 896H288.475429C239.177143 896 199.094857 857.819429 199.094857 810.642286v-85.284572c0-47.104 40.082286-85.357714 89.380572-85.357714H199.094857C149.796571 640 109.714286 601.819429 109.714286 554.715429v-597.357715C109.714286-89.819429 149.796571-128 199.094857-128h625.810286c49.298286 0 89.380571 38.180571 89.380571 85.357714V554.569143c0 47.250286-40.082286 85.357714-89.380571 85.357714z m-178.834286-512H555.446857v-85.357714a42.642286 42.642286 0 0 0-42.715428-42.642286H512c-24.722286 0-44.836571 19.090286-44.836571 42.642286v85.284571h-89.234286a43.666286 43.666286 0 0 0-44.617143 42.642286c0 23.478857 19.894857 42.715429 44.617143 42.715429h89.380571V298.422857c0 23.625143 20.041143 42.715429 44.763429 42.715429a42.788571 42.788571 0 0 0 43.373714-41.984v-86.016h90.697143c24.649143 0 44.617143-19.090286 44.617143-42.715429 0-23.478857-20.114286-42.642286-44.617143-42.642286zM838.217143 426.496H185.856v128h652.288v-128z"  horiz-adv-x="1024" />

    
    <glyph glyph-name="zhuzhi" unicode="&#59074;" d="M343.904 192c45.76-49.536 99.52-100.768 161.344-153.664 8-6.848 19.776-6.848 27.744 0C594.88 91.2 648.64 142.464 694.4 192H720l256-256H80l234.656 256h29.248z m-114.56 362.016C229.344 691.68 343.424 832 519.136 832s289.792-140.32 289.792-277.984c0-119.424-91.968-258.144-275.904-416.192a21.344 21.344 0 0 0-27.808 0c-183.904 158.048-275.872 296.768-275.872 416.192z m199.104 36.64a91.104 91.104 0 0 1 92-92 91.104 91.104 0 0 1 92 92 91.104 91.104 0 0 1-92 92 91.104 91.104 0 0 1-92-92z"  horiz-adv-x="1024" />

    
    <glyph glyph-name="shuaxin1" unicode="&#59018;" d="M769.6 736.512L514.112 896v-319.296zM512.96 768.704C275.264 759.872 62.656 564.608 62.656 324.864 62.656 79.616 277.376-128 522.752-128c239.616 0 429.12 190.08 437.76 427.712h-65.856C886.08 98.368 726.144-64 522.752-64c-209.024 0-397.12 179.968-397.12 388.864 0 203.456 185.984 369.344 387.328 377.856V768.704z"  horiz-adv-x="1024" />

    
    <glyph glyph-name="shuaxin" unicode="&#59017;" d="M515.1-36C286-36 99.5 150.4 99.5 379.6c0 16.5 13.4 29.9 29.9 29.9s29.9-13.4 29.9-29.9c0-196.2 159.6-355.8 355.8-355.8 118.4 0 228.7 58.6 295 156.9 9.3 13.7 27.9 17.3 41.6 8.1 13.7-9.3 17.3-27.9 8.1-41.6C782.3 32.4 653.4-36 515.1-36zM900.9 349.7c-16.5 0-29.9 13.4-29.9 29.9 0 196.2-159.6 355.8-355.8 355.8-114 0-221.9-55.2-288.7-147.8-9.7-13.4-28.3-16.5-41.8-6.7-13.4 9.7-16.4 28.4-6.7 41.8 78 108 204 172.6 337.1 172.6 229.2 0 415.7-186.5 415.7-415.7 0-16.5-13.4-29.9-29.9-29.9zM53 260c-5 0-10.1 1.3-14.7 3.9-14.4 8.2-19.4 26.4-11.3 40.8l69.2 121.9c4.5 7.9 12.4 13.4 21.4 14.8 9 1.5 18.2-1.3 24.9-7.5l108.3-99.2c12.2-11.2 13-30.1 1.8-42.3-11.2-12.2-30.1-13-42.3-1.8l-80.6 73.9L79 275.2c-5.5-9.7-15.6-15.2-26-15.2zM904.4 316.5c-7.4 0-14.6 2.7-20.1 7.8l-104.1 94.6c-12.2 11.1-13.1 30.1-2 42.3 11.1 12.2 30 13.1 42.3 2l76.3-69.3 47.4 84.2c8.1 14.4 26.3 19.6 40.8 11.4 14.4-8.1 19.5-26.4 11.4-40.8l-65.8-116.9c-4.5-8-12.3-13.4-21.3-14.9-1.7-0.3-3.3-0.4-4.9-0.4z"  horiz-adv-x="1024" />

    
    <glyph glyph-name="apply" unicode="&#59363;" d="M333.824-90.11199999999997H178.176c-78.848 0-143.36 64.512-143.36 143.36V720.384c0 78.848 64.512 143.36 143.36 143.36h667.136c78.848 0 143.36-64.512 143.36-143.36v-155.136c0-22.528-18.432-40.96-40.96-40.96s-40.96 18.432-40.96 40.96V720.384c0 33.792-27.648 61.44-61.44 61.44H178.176c-33.792 0-61.44-27.648-61.44-61.44v-667.136c0-33.792 27.648-61.44 61.44-61.44h155.136c22.528 0 40.96-18.432 40.96-40.96s-17.92-40.96-40.448-40.96zM494.08-80.38400000000001c-10.24 0-20.992 4.096-29.184 11.776-15.872 15.872-15.872 41.984 0 57.856L916.48 441.344c15.872 15.872 41.984 15.872 57.856 0 15.872-15.872 15.872-41.984 0-57.856l-451.584-451.584c-7.68-8.192-18.432-12.288-28.672-12.288zM782.336 555.008H241.664c-22.528 0-40.96 18.432-40.96 40.96s18.432 40.96 40.96 40.96h541.184c22.528 0 40.96-18.432 40.96-40.96s-18.432-40.96-41.472-40.96zM557.056 276.99199999999996H241.664c-22.528 0-40.96 18.432-40.96 40.96s18.432 40.96 40.96 40.96h315.904c22.528 0 40.96-18.432 40.96-40.96s-18.432-40.96-41.472-40.96z"  horiz-adv-x="1024" />

    
    <glyph glyph-name="in-apply-edit" unicode="&#59010;" d="M678.854949 858.074075L151.913033 858.074075C67.776878 858.074075 0 790.060281 0 706.161013L0 23.913061999999968C0-60.22313699999995 68.013787-128 151.913033-128L834.161006-128C918.297234-128 986.074039-59.98620500000004 986.074039 23.913061999999968L986.074039 543.1230459999999 910.22219 467.271197 910.22219 23.913061999999968C910.22219-18.194593000000054 876.305262-52.148150999999984 834.161006-52.148150999999984L151.913033-52.148150999999984C109.805422-52.148150999999984 75.851849-18.231172000000015 75.851849 23.913061999999968L75.851849 706.161013C75.851849 748.2686679999999 109.76885 782.222219 151.913033 782.222219L603.003099 782.222219 678.854949 858.074075ZM320.679497 197.14506600000004L550.775881 262.471958 386.423442 425.819414 320.679497 197.14506600000004ZM935.236535 644.587381L770.882048 807.936965 409.297774 448.578077 573.650213 285.244409 935.236535 644.587381ZM1011.623351 781.8015379999999L908.897353 883.888662C891.877742 900.806437 863.36629 899.885305 845.211136 881.847962L795.896832 832.853058 960.252416 669.504541 1009.563575 718.514293C1027.718729 736.552704 1028.639817 764.881642 1011.623351 781.8015379999999Z"  horiz-adv-x="1024" />

    
    <glyph glyph-name="in-apply-delete" unicode="&#59011;" d="M799.2 21.600000000000023c0-34.4-28-62.4-62.376-62.4H287.2a62.488 62.488 0 0 0-62.4 62.4V684h574.4v-662.4zM349.6 796c0 7.2 5.6 12.8 12.8 12.8h300c7.2 0 12.776-5.6 12.776-12.8v-37.6H349.6v37.6z m636.8-37.6H749.6v37.6c0 48-39.2 87.2-87.2 87.2H362.4c-48.112-0.104-87.096-39.088-87.2-87.2v-37.6H37.6c-20.8 0-37.6-16.8-37.6-37.6s16.8-37.6 37.6-37.6h112v-661.6c0-75.992 61.608-137.6 137.6-137.6h449.6c76 0 137.6 61.608 137.6 137.6V684h112c20.808 0 37.6 16.8 37.6 37.6s-16.8 36.8-37.6 36.8zM512 72c20.8 0 37.6 16.8 37.6 37.6v400c0 20.8-16.776 37.6-37.6 37.6-20.8 0-37.6-16.8-37.6-37.6v-400c0-20.8 16.8-37.6 37.6-37.6m-175.2 0c20.8 0 37.6 16.8 37.6 37.6v400c0 20.8-16.8 37.6-37.6 37.6s-37.6-16.8-37.6-37.6v-400c0.8-20.8 17.6-37.6 37.6-37.6m350.4 0c20.8 0 37.624 16.8 37.624 37.6v400c0 20.8-16.8 37.6-37.624 37.6-20.768 0-37.6-16.8-37.6-37.6v-400c0-20.8 16.8-37.6 37.6-37.6"  horiz-adv-x="1024" />

    
    <glyph glyph-name="in-apply-tipe" unicode="&#59012;" d="M511.744 895.914667A512.256 512.256 0 0 1 0 384a512.256 512.256 0 0 1 511.744-511.744 512.256 512.256 0 0 1 511.744 511.744A512.341333 512.341333 0 0 1 511.744 896z m0-975.872A464.725333 464.725333 0 0 0 47.616 384a464.725333 464.725333 0 0 0 464.213333 464.213333A464.725333 464.725333 0 0 0 975.786667 384a464.725333 464.725333 0 0 0-464.128-464.128zM598.528 221.866667c-25.258667 6.314667-47.616-84.053333-86.528-70.997334-3.669333 1.365333-3.328 0.853333-6.144 3.072 11.946667 129.109333 64.597333 244.224 89.6 370.602667h-6.144c-51.712-18.176-129.024-10.922667-179.2-30.890667v-15.36c74.666667 1.450667 55.210667-44.117333 40.106667-98.816-18.773333-67.754667-52.821333-152.405333-58.709334-213.162666-5.973333-60.672 31.573333-83.626667 67.925334-83.370667 51.370667 0.256 94.72 50.602667 117.418666 80.213333 5.802667 7.68 46.933333 52.48 21.674667 58.709334z m-29.184 493.909333a63.146667 63.146667 0 1 1 0-126.293333 63.146667 63.146667 0 0 1 0 126.293333z"  horiz-adv-x="1024" />

    
    <glyph glyph-name="in-apply-org" unicode="&#59013;" d="M931.947789 267.91073700000004H808.96v20.587789a92.213895 92.213895 0 0 1-91.243789 91.621053c-34.277053 0.323368-68.554105 0-102.777264 0H537.276632V446.194526h108.921263a65.050947 65.050947 0 0 1 65.212631 65.050948V777.108211A65.050947 65.050947 0 0 1 646.197895 842.105263H380.335158A64.997053 64.997053 0 0 1 315.284211 777.108211V511.191579a64.997053 64.997053 0 0 1 65.050947-64.997053H485.052632v-65.805473H305.367579a95.609263 95.609263 0 0 1-31.636211-4.634948 93.507368 93.507368 0 0 1-57.882947-57.882947 129.347368 129.347368 0 0 1-4.634947-43.654737v-4.473263H92.052211A65.050947 65.050947 0 0 1 26.947368 204.69221100000004v-265.862737a65.050947 65.050947 0 0 1 65.104843-64.997053h265.862736a65.050947 65.050947 0 0 1 65.050948 64.997053v265.862737a65.050947 65.050947 0 0 1-65.050948 65.050947H263.275789v18.216421 5.389474 1.509052 0.592842a9.108211 9.108211 0 0 1 0 1.616842v-0.91621a63.326316 63.326316 0 0 0 2.15579 7.922526 27.755789 27.755789 0 0 0 0.808421 1.886316 66.452211 66.452211 0 0 0 3.557053 6.144c0.754526 1.185684 1.724632 2.263579 2.425263 3.449263l-0.646737-1.077895c1.778526 1.994105 3.718737 3.718737 5.389474 5.389474 0.646737 0.485053 1.239579 0.970105 1.886315 1.347369A65.266526 65.266526 0 0 0 285.642105 324.715789h-1.077894c1.077895 0.269474 2.263579 0.862316 3.341473 1.239579a80.303158 80.303158 0 0 0 7.976421 2.101895c1.024 0 2.101895 0.269474 3.018106 0.323369H724.237474a65.158737 65.158737 0 0 0 7.006315-1.886316c1.347368-0.431158 2.694737-1.131789 4.042106-1.455158h-1.077895a65.428211 65.428211 0 0 0 6.144-3.557053l1.562947-1.077894 0.970106-1.077895a62.571789 62.571789 0 0 0 4.958315-4.958316l-0.646736 1.077895c0.592842-1.024 1.401263-1.940211 2.048-2.856421a68.015158 68.015158 0 0 0 3.934315-6.736842c0-0.431158 0.485053-1.077895 0.754527-1.724632a8.677053 8.677053 0 0 0 0.431158-1.293474 64.242526 64.242526 0 0 0 1.886315-7.006315v-0.377264a11.533474 11.533474 0 0 1 0 1.509053c0-0.970105 0-1.994105 0.269474-2.964211v-25.977263H666.138947a65.050947 65.050947 0 0 1-65.050947-65.050947v-265.862737A65.050947 65.050947 0 0 1 666.138947-128h265.808842A65.050947 65.050947 0 0 1 997.052632-63.00294699999995v265.862736a64.997053 64.997053 0 0 1-65.104843 64.997053z m0 0"  horiz-adv-x="1024" />

    
    <glyph glyph-name="in-apply-pos" unicode="&#59015;" d="M500.622222 896l443.733334-256v-512L500.622222-128 57.400889 128v512L500.679111 896z m0-90.055111L135.054222 595.2284440000001v-424.561777l367.388445-210.773334 365.624889 210.773334V595.2284440000001L500.679111 805.944889z m0-208.611556l184.775111-106.666666v-213.333334L500.679111 170.66666699999996l-184.775111 106.666666v213.333334L500.679111 597.333333z"  horiz-adv-x="1024" />

    
    <glyph glyph-name="in-apply-sitle" unicode="&#59006;" d="M822.89 487.63c0 171.7-139.19 310.89-310.89 310.89S201.11 659.33 201.11 487.63c0-140.232 92.854-258.762 220.427-297.504L512 99.66300000000001l90.463 90.463C730.036 228.86800000000005 822.89 347.398 822.89 487.63zM512 593.0160000000001c58.203 0 105.386-47.183 105.386-105.386S570.203 382.244 512 382.244 406.614 429.427 406.614 487.63 453.797 593.0160000000001 512 593.0160000000001zM178.276 19.53800000000001a333.724 50.05900000000008 0 1 1 667.448 0 333.724 50.05900000000008 0 1 1-667.448 0Z"  horiz-adv-x="1024" />

    
    <glyph glyph-name="in-applytel" unicode="&#59005;" d="M935.254 135.25300000000004c0-158.72-72.746-158.72-423.254-158.72-350.506 0-423.254 0-423.254 158.72 0 171.946 191.786 515.84 423.254 515.84 231.466 0 423.254-343.894 423.254-515.84v0 0zM512 578.347c-99.2 0-178.56-79.36-178.56-178.56s79.36-178.56 178.56-178.56c99.2 0 178.56 79.36 178.56 178.56 0 99.2-79.36 178.56-178.56 178.56v0 0zM141.654 446.079c72.746 119.04 198.4 244.694 370.346 244.694s310.826-138.88 370.346-244.694c33.066-52.906 92.586-46.294 119.04 0 19.84 33.066 72.746 330.666-489.386 330.666-562.134 0-509.226-304.214-489.386-330.666 39.68-52.906 105.814-26.454 119.04 0v0 0z"  horiz-adv-x="1024" />

    
    <glyph glyph-name="huanzhe1" unicode="&#59839;" d="M711.338667-57.344a19.797333 19.797333 0 0 1 19.797333 19.797333v308.224c0 86.016-66.218667 158.378667-143.018667 158.378667h-152.234666c-77.141333 0-143.018667-72.704-143.018667-158.378667v-306.176c0-13.312 8.874667-19.797333 19.797333-19.797333h398.677334z m-471.381334 0a19.797333 19.797333 0 0 1 19.797334 19.797333v310.613334c0 10.922667-6.485333 22.186667-17.749334 22.186666h-61.44c-66.218667 0-118.784-44.032-118.784-110.250666v-222.549334c0-13.312 8.874667-19.797333 19.797334-19.797333z m704.512 0a19.797333 19.797333 0 0 1 19.797334 19.797333v222.208c0 66.218667-54.954667 121.173333-118.784 121.173334h-61.44c-4.437333 0-10.922667-2.048-13.312-6.485334a40.618667 40.618667 0 0 1-4.437334-15.36v-321.536c0-13.312 8.874667-19.797333 19.797334-19.797333z m-105.813333 394.24c77.141333 0 138.581333 61.781333 138.581333 140.970667s-61.781333 140.970667-138.581333 140.970666-138.581333-61.781333-138.581333-140.970666 61.781333-140.970667 138.581333-140.970667z m-653.994667 0a140.970667 140.970667 0 1 1 0 281.941333c-77.141333 0-138.581333-61.781333-138.581333-140.970666s61.781333-140.970667 138.581333-140.970667z m325.973334 123.221333c98.986667 0 180.565333 81.578667 180.565333 182.613334s-79.189333 182.613333-180.565333 182.613333-180.224-81.237333-180.224-182.613333 81.578667-182.613333 180.565333-182.613334z m0 0"  horiz-adv-x="1024" />

    
    <glyph glyph-name="biaoti" unicode="&#59168;" d="M859.2 379.2c-3.2-196-159.2-352-356-356-196-3.2-352 164-356 356C144 576 312 732 503.2 735.2c196.8 3.2 352.8-164.8 356-356 0.8-36.8 58.4-37.6 57.6 0-4 213.6-161.6 385.6-372.8 411.2C331.2 816 136 658.4 96.8 453.6c-40-208.8 94.4-412 294.4-472 205.6-61.6 418.4 57.6 497.6 249.6 19.2 46.4 26.4 98.4 28 148.8 0.8 36.8-57.6 36.8-57.6-0.8zM500 224.8l134.4 134.4c11.2 11.2 11.2 29.6 0 40.8-45.6 44.8-90.4 88.8-134.4 133.6-26.4 26.4-67.2-14.4-40.8-40.8l134.4-134.4V400L459.2 265.6c-26.4-26.4 14.4-67.2 40.8-40.8z m0 0"  horiz-adv-x="1024" />

    
    <glyph glyph-name="zhenduanliang" unicode="&#59312;" d="M536.11 123.03H242.26c-12.08 0-21.97 9.89-21.97 21.97 0 12.08 9.89 21.97 21.97 21.97h293.85c2.11 20.55 7.24 40.19 14.79 58.58H242.26c-12.08 0-21.97 9.89-21.97 21.97 0 12.08 9.89 21.97 21.97 21.97H575.6c17.33 23.83 39.45 43.88 65.03 58.76H242.26c-12.08 0-21.97 9.89-21.97 21.97 0 12.08 9.89 21.97 21.97 21.97h423.96c12.08 0 21.97-9.89 21.97-21.97 0-0.59-0.29-1.09-0.34-1.68 18.81 5.46 38.63 8.53 59.19 8.53 21.83 0 42.88-3.32 62.7-9.45V646.4c0 48.69-40.82 88.23-91.16 88.23H673v22.15c0 26.73-22.52 48.51-50.16 48.51-13.36 0-25.99-5.13-35.51-14.28-9.34-9.15-14.64-21.42-14.64-34.41v-22.15H335.62V756.6c0 13-5.13 25.26-14.64 34.41s-22.15 14.28-35.51 14.28c-27.64 0-50.16-21.6-50.16-48.51v-22.15h-45.58c-50.34 0-91.16-39.54-91.16-88.23v-573.52c0-48.69 40.82-88.23 91.16-88.23h418.8c-39.79 34.38-66.74 83.18-72.42 138.38z m-159.3 458.38h45.58v43.93c0 17.02 14.28 30.75 31.85 30.75s31.85-13.73 31.85-30.75v-43.93h45.58c17.57 0 31.85-13.73 31.85-30.75 0-8.24-3.3-16.11-9.34-21.78-5.86-5.86-14.1-8.97-22.52-8.97h-45.58v-43.93c0-8.24-3.3-16.11-9.34-21.78-5.86-5.86-14.1-8.97-22.52-8.97s-16.48 3.3-22.52 8.97c-6.04 5.86-9.34 13.55-9.34 21.78V519.9h-45.58c-8.42 0-16.48 3.3-22.52 8.97-6.04 5.86-9.34 13.55-9.34 21.78 0.03 17.03 14.31 30.76 31.89 30.76zM745.4 327.48c-100.6 0.02-182.16-81.52-182.18-182.11v-0.07c-0.02-100.6 81.52-182.16 182.11-182.18 100.6-0.02 182.16 81.52 182.18 182.11v0.07c0.03 100.59-81.51 182.16-182.11 182.18z m107.75-245.15c-4.38-7.6-14.12-10.2-21.69-5.82l-93.77 54.16c-3.3 1.91-5.6 4.85-6.85 8.16-0.12 0.28-0.21 0.57-0.32 0.85-0.1 0.31-0.21 0.61-0.29 0.92-0.46 1.48-0.77 3.02-0.77 4.66v67c0 8.77 7.14 15.87 15.91 15.87s15.91-7.1 15.91-15.91v-58.5l86.05-49.66c7.6-4.39 10.2-14.13 5.82-21.73z"  horiz-adv-x="1024" />

    
    <glyph glyph-name="caidan" unicode="&#59247;" d="M0 779.221333c0 26.282667 21.290667 47.573333 47.573333 47.573334h334.08c26.282667 0 47.573333-21.290667 47.573334-47.573334v-334.08c0-26.24-21.333333-47.530667-47.573334-47.530666h-334.08A47.573333 47.573333 0 0 0 0 445.184v334.08zM705.578667 882.048a47.573333 47.573333 0 0 0 67.242666 0l236.245334-236.202667a47.573333 47.573333 0 0 0 0-67.285333l-236.245334-236.202667a47.573333 47.573333 0 0 0-67.242666 0L469.333333 578.56a47.573333 47.573333 0 0 0 0 67.285333L705.578667 882.048z m-180.992-627.413333c0 26.282667 21.333333 47.573333 47.573333 47.573333h334.08c26.282667 0 47.573333-21.290667 47.573333-47.573333v-334.08c0-26.24-21.290667-47.573333-47.573333-47.573334h-334.08a47.573333 47.573333 0 0 0-47.573333 47.573334v334.08zM0 254.634667c0 26.282667 21.290667 47.573333 47.573333 47.573333h334.08c26.282667 0 47.573333-21.290667 47.573334-47.573333v-334.08c0-26.24-21.333333-47.573333-47.573334-47.573334h-334.08A47.573333 47.573333 0 0 0 0-79.445333v334.08z"  horiz-adv-x="1024" />

    
    <glyph glyph-name="guanzhu" unicode="&#58991;" d="M576.743226 324.707097c-17.176774-8.48929-33.362581-19.489032-47.764645-32.966194-75.511742-70.589935-74.785032-190.827355 1.123096-265.216a27.747097 27.747097 0 0 1 5.285162-4.954838l127.174193-118.552775H0c0 239.979355 208.103226 434.440258 464.730839 434.440258 38.61471 0 76.139355-4.39329 112.012387-12.750451z m-124.961032 43.767742c-149.702194 0-271.06271 118.090323-271.06271 263.729548C180.686452 777.876645 302.08 896 451.782194 896s271.029677-118.123355 271.029677-263.795613-121.327484-263.729548-271.029677-263.729548z m530.101677-305.085936L782.765419-128l-194.031484 185.872516a16.284903 16.284903 0 0 0-3.96387 3.79871c-56.485161 56.881548-57.013677 148.810323-0.792775 202.818064 54.073806 51.992774 140.288 55.692387 198.689033 10.735484 58.368 44.593548 144.218839 40.96 197.962322-10.702451a139.660387 139.660387 0 0 0 1.255226-201.13342z"  horiz-adv-x="1024" />

    
    <glyph glyph-name="zu" unicode="&#59007;" d="M574.817894-127.999573h-382.719841a191.99992 191.99992 0 0 0-189.439921 223.615906l23.167991 138.581276a255.999893 255.999893 0 0 0 228.223905 212.693245v-162.901266a127.999947 127.999947 0 0 1-96.25596-123.989281V0.000373a31.999987 31.999987 0 0 1 32.08532-31.999986h42.666648a31.999987 31.999987 0 1 1 0 63.999973h-10.538662v127.999947a64.17064 64.17064 0 0 0 128.34128 0v-127.999947h-10.709329a31.999987 31.999987 0 0 1 0-63.999973h42.666649a31.999987 31.999987 0 0 1 32.127987 31.999986v159.999934a127.999947 127.999947 0 0 1-96.25596 123.989281v109.098622a286.933214 286.933214 0 0 1 191.99992-73.08797h0.64a319.231867 319.231867 0 0 1 63.999973-447.999813z m179.711925 575.74376h-3.839998a0.554666 0.554666 0 0 0 0 0.298666h3.669331zM510.689921 896a226.559906 226.559906 0 0 0 224.725239-254.719894l-8.53333-66.303972a218.111909 218.111909 0 0 0-432.895819 0L285.922014 641.365439A226.559906 226.559906 0 0 0 510.775254 896z m256.639893-1023.999573a255.999893 255.999893 0 1 0 256.682559 255.999893 256.341227 256.341227 0 0 0-256.682559-255.999893z m94.33596 354.133185l-126.250614-126.29328-62.335974 62.293307a48.042647 48.042647 0 1 1-68.053305-67.839972l96.25596-95.99996a48.170647 48.170647 0 0 1 68.053305 0l160.469267 159.999934a48.12798 48.12798 0 0 1-68.266639 67.839971z"  horiz-adv-x="1024" />

    
    <glyph glyph-name="daohang" unicode="&#59003;" d="M892.712 598.135c-0.629-2.74-1.176-5.502-1.902-8.217-6.246-23.368-27.368-39.8-51.511-40.048-7.611-0.079-15.222-0.02-22.833-0.02-210.72-0.002-421.44-0.003-632.16 0.001-25.387 0-46.256 15.048-53.35 38.504-0.97 3.203-1.574 6.518-2.347 9.78v11.746c0.196 0.608 0.486 1.203 0.578 1.828 3.223 21.911 19.016 39.432 40.47 44.846 2.395 0.603 4.824 1.078 7.238 1.612h667.532c0.602-0.196 1.192-0.47 1.81-0.58 22.914-4.092 37.763-17.29 44.566-39.521 0.819-2.673 1.282-5.454 1.91-8.185v-11.746z m0-218.596c-0.629-2.739-1.176-5.502-1.902-8.217-6.246-23.367-27.37-39.8-51.511-40.048-7.611-0.079-15.222-0.021-22.833-0.021-210.72 0-421.44-0.002-632.159 0.002-25.387 0-46.257 15.046-53.352 38.503-0.969 3.204-1.573 6.518-2.346 9.781v11.746c0.629 2.735 1.177 5.492 1.9 8.203 6.232 23.362 27.352 39.777 51.505 40.07 0.87 0.012 1.74 0.014 2.61 0.014 217.358 0 434.717 0.002 652.075-0.001 23.543 0 43.055-12.344 51.624-33.034 2.012-4.857 2.956-10.156 4.39-15.251v-11.747zM128.608 173.995c0.629 2.735 1.177 5.492 1.9 8.203 6.232 23.36 27.352 39.777 51.505 40.07 0.87 0.01 1.74 0.014 2.61 0.014 217.358 0 434.717 0.002 652.075-0.001 23.542 0 43.056-12.344 51.624-33.034 2.012-4.856 2.956-10.156 4.39-15.25v-11.746c-0.206-0.723-0.496-1.431-0.607-2.168-3.268-21.741-19.407-39.427-40.749-44.606-2.297-0.557-4.62-1.01-6.93-1.513H176.894c-0.604 0.196-1.195 0.486-1.815 0.576-21.662 3.15-39.066 18.648-44.652 39.825-0.688 2.606-1.216 5.256-1.818 7.886l-0.001 11.744z"  horiz-adv-x="1024" />

    
    <glyph glyph-name="user" unicode="&#59158;" d="M512 384c52.8 0 96 43.2 96 96s-43.2 96-96 96c-52.768 0-96-43.2-96-96s43.232-96 96-96z m0 256a160.032 160.032 0 0 0 0-320c-88.32 0-160 71.68-160 160s71.68 160 160 160z m285.792-558.08A414.432 414.432 0 0 1 928 384c0 229.44-186.56 416-416 416S96 613.44 96 384c0-118.72 49.952-226.24 130.272-302.08 4.8 39.04 19.84 72 44.8 98.56C318.432 231.36 397.12 256 512 256c114.912 0 193.632-24.64 240.992-75.52 24.96-26.56 40-59.52 44.8-98.56z m-62.4-48.64v0.96c3.168 44.48-6.4 78.08-29.12 102.72C672 173.44000000000005 606.72 192 512 192c-94.72 0-160-18.56-194.208-55.04-22.72-24.64-32.352-58.24-29.12-102.72v-0.96A414.016 414.016 0 0 1 512-32c81.952 0 158.72 24 223.392 65.28zM512 864c264.672 0 480-215.36 480-480s-215.328-480-480-480C247.392-96 32 119.36000000000001 32 384S247.392 864 512 864z"  horiz-adv-x="1024" />

    
    <glyph glyph-name="cancel-out-hospital" unicode="&#58990;" d="M472 544H232a24 24 0 0 1 0-48h240a24 24 0 0 1 0 48zM352 664a24 24 0 0 1-24-24v-240a24 24 0 0 1 48 0V640a24 24 0 0 1-24 24z m96-520a16 16 0 0 0 16-16v-144H240V128a16 16 0 0 0 16 16h192m0 48H256a64 64 0 0 1-64-64v-192h320V128a64 64 0 0 1-64 64z m448 288H592v-104a24 24 0 0 1 48 0v56h256a16 16 0 0 0 16-16v-40a24 24 0 0 1 48 0v40a64 64 0 0 1-64 64zM640 768v-392a24 24 0 0 0-48 0V768a16 16 0 0 1-16 16H128a16 16 0 0 1-16-16v-768a16 16 0 0 1 16-16h408a24 24 0 0 0 0-48H128a64 64 0 0 0-64 64V768a64 64 0 0 0 64 64h448a64 64 0 0 0 64-64zM576 832H128a64 64 0 0 1-64-64v-768a64 64 0 0 1 64-64h408a24 24 0 0 1 0 48H128a16 16 0 0 0-16 16V768a16 16 0 0 0 16 16h448a16 16 0 0 0 16-16v-392a24 24 0 0 1 48 0V768a64 64 0 0 1-64 64zM768 288a160 160 0 1 0-160-160 160 160 0 0 0 160 160m0 32a192 192 0 1 1 192-192 192 192 0 0 1-192 192zM878.72 109.60000000000002a16 16 0 0 1 0 12.32 16 16 0 0 1-3.36 5.12l-57.44 57.44a16 16 0 0 1-22.56 0 16 16 0 0 1 0-22.72l30.08-30.08H672a16 16 0 0 1 0-32h192a16 16 0 0 1 14.72 9.92zM632.272 241.13599999999997l22.624 22.624 248.912-248.88-22.64-22.624z"  horiz-adv-x="1024" />

    
    <glyph glyph-name="pay-cash" unicode="&#58989;" d="M755.712 887.296c-124.416 0-224.768-100.864-224.768-224.768S631.808 437.76 755.712 437.76 980.48 538.624 980.48 662.528 880.128 887.296 755.712 887.296z m92.672-179.2v-31.232H773.12v-46.592h75.264v-31.232H773.12v-62.976H742.4v64h-79.872v31.232h77.312v46.592h-77.312v30.72h50.176l-50.176 78.848h46.592l46.592-72.192 46.08 72.192h46.592l-50.176-77.312 50.176-2.048zM763.392 386.048c-75.776-0.512-149.504 27.136-205.824 77.824H212.992c-15.36-1.024-28.672 9.728-30.208 25.088v77.824c1.536 15.36 14.848 26.112 30.208 25.088h272.384c-2.048 10.24-3.584 20.992-4.096 31.744 0.512 21.504 4.096 43.008 11.776 62.976H136.192c-32.768 2.56-61.952-22.016-64.512-54.784v-696.832c3.072-32.768 31.744-56.832 64.512-54.272h640c32.768-2.56 61.44 21.504 64.512 54.272v463.36c-25.088-7.168-51.2-11.264-77.312-12.288zM256-36.86400000000003c-29.696-2.56-55.808 19.456-58.368 49.152v1.024c2.048 29.696 28.16 52.224 57.856 50.176h1.024c29.696 2.048 55.808-19.968 57.856-49.664v-0.512c-2.048-29.696-28.16-52.224-58.368-50.176 0.512 0 0 0 0 0z m0 166.912c-29.696-2.56-55.808 19.456-58.368 49.152v1.024c2.048 29.696 27.648 52.224 57.856 50.176h1.024c29.696 2.048 55.808-19.968 57.856-49.664v-0.512C312.32 150.52800000000002 286.208 128 256 130.048c0.512 0 0 0 0 0z m0 166.912c-29.696-2.56-55.808 19.456-58.368 49.152v1.024c2.048 29.696 27.648 52.224 57.856 50.176h1.024c29.696 2.048 55.808-19.968 57.856-49.664v-0.512c-2.56-29.696-28.672-52.224-58.368-50.176z m200.704-333.824c-29.696-2.048-55.808 19.968-57.856 49.664v0.512c2.048 29.696 28.16 52.224 57.856 50.176h0.512c29.696 2.56 55.808-19.456 58.368-49.152v-1.024c-2.048-29.696-28.16-52.224-57.856-50.176h-1.024z m0 166.912c-29.696-2.048-55.808 19.968-57.856 49.664v0.512c2.048 29.696 28.16 52.224 57.856 50.176h0.512c29.696 2.56 55.808-19.456 58.368-49.152v-1.024c-2.048-29.696-28.16-52.224-57.856-50.176h-1.024z m0 166.912c-29.696-2.048-55.808 19.968-57.856 49.664v0.512c2.048 29.696 28.16 52.224 57.856 50.176h0.512c29.696 2.56 55.808-19.456 58.368-49.152v-1.024c-3.072-29.696-28.672-52.224-58.88-50.176z m259.072-285.184c-2.048-29.696-28.16-52.224-57.856-50.176h-0.512c-29.696-2.56-55.808 19.456-58.368 49.152V178.688c2.048 29.696 28.16 52.224 57.856 50.176h1.024c29.696 2.048 55.808-19.968 57.856-49.664v-167.424zM657.408 296.96000000000004c-29.696-2.56-55.808 19.456-58.368 49.152v1.024c2.048 29.696 28.16 52.224 57.856 50.176h1.024c29.696 2.048 55.808-19.968 57.856-49.664v-0.512c-2.56-29.696-28.672-52.224-58.368-50.176z"  horiz-adv-x="1024" />

    
    <glyph glyph-name="out-settle" unicode="&#58988;" d="M1024 457.143H512v-512h512V-128H438.857V164.57100000000003H219.43V-128H0V822.857h658.286V603.4300000000001H1024v-146.286z m-731.429 204.8H219.43V588.8h73.142v-73.143h73.143V588.8h73.143v73.143h-73.143v73.143h-73.143v-73.143z m512-387.657V420.57L1024 204.58100000000002 804.571-18.285999999999945V128H585.143V274.28599999999994H804.57z"  horiz-adv-x="1024" />

    
    <glyph glyph-name="in-hospital" unicode="&#58983;" d="M1054.583 214.57500000000005H821.855V288.86L605.233 158.86l216.576-134.61v84.2h224.349c36.817 2.654 36.166 35.84 36.166 35.84v29.185c0 37.795-27.788 41.1-27.788 41.1z m33.187 555.892h-74.147V846.522a30.068 30.068 0 0 1-29.65 30.44 30.022 30.022 0 0 1-29.65-30.44v-76.055H880.13a30.022 30.022 0 0 1-29.65-30.394c0-16.85 13.313-30.441 29.65-30.441h74.194v-76.055c0-16.85 13.219-30.441 29.65-30.441a30.022 30.022 0 0 1 29.649 30.44v76.056h74.147a30.022 30.022 0 0 1 29.65 30.44 30.022 30.022 0 0 1-29.65 30.395z m-49.478-810.124h-24.762v90.02h-59.3v-88.437h-148.2L517.495 162.07000000000005l288.535 181.76V448.698h148.294V269.08000000000004h59.299V448.745c0 33.512-26.67 60.788-59.3 60.788H806.03v269.87c0 33.513-26.624 60.836-59.299 60.836H138.754c-32.721 0-59.345-27.323-59.345-60.835v-819.06H29.978a30.022 30.022 0 0 1-29.65-30.395c0-16.85 13.266-30.44 29.65-30.44h1008.36a30.022 30.022 0 0 1 29.65 30.44 30.022 30.022 0 0 1-29.65 30.394zM279.6 582.8430000000001h318.79c16.384 0 29.65-13.592 29.65-30.442a30.022 30.022 0 0 0-29.65-30.394H279.6a30.022 30.022 0 0 0-29.65 30.394c0 16.85 13.266 30.441 29.65 30.441zM249.905 400.29c0 16.803 13.265 30.44 29.696 30.44h318.79c16.384 0 29.65-13.637 29.65-30.44a30.022 30.022 0 0 0-29.65-30.44H279.6a30.022 30.022 0 0 0-29.65 30.44z"  horiz-adv-x="1117" />

    
    <glyph glyph-name="UnionPay" unicode="&#59001;" d="M1856 642.56c10.24-20.48 7.68-17.92 20.48-20.48h30.72c-7.68 10.24-12.8 30.72-17.92 38.4-2.56 5.12-7.68 5.12-12.8 5.12H1843.2c5.12-5.12 7.68-15.36 12.8-23.04zM1228.8 327.67999999999995z m10.24 0H1228.8h10.24zM235.52 709.12h258.56c15.36 0 33.28-7.68 43.52-20.48 10.24-12.8 12.8-30.72 7.68-46.08l-120.32-519.68c-10.24-38.4-43.52-64-81.92-66.56H81.92c-15.36 0-33.28 7.68-43.52 20.48-10.24 12.8-12.8 30.72-7.68 46.08L153.6 642.56c10.24 38.4 43.52 64 81.92 66.56zM473.6 709.12h296.96c35.84 0 20.48-30.72 10.24-66.56l-120.32-519.68c-7.68-35.84-5.12-66.56-40.96-66.56H320c-15.36 0-33.28 7.68-43.52 20.48-10.24 12.8-12.8 30.72-7.68 46.08l120.32 519.68c12.8 38.4 46.08 64 84.48 66.56zM760.32 709.12h258.56c15.36 0 33.28-7.68 43.52-20.48 10.24-12.8 12.8-30.72 7.68-46.08l-120.32-519.68c-10.24-38.4-43.52-64-81.92-66.56H609.28c-15.36 0-33.28 7.68-43.52 20.48-10.24 12.8-12.8 30.72-7.68 46.08l120.32 519.68c10.24 38.4 43.52 64 81.92 66.56zM716.8 220.15999999999997h25.6l7.68 23.04h-25.6l-7.68-23.04z m17.92 66.56l-7.68-28.16c5.12 2.56 10.24 5.12 15.36 5.12 5.12 2.56 12.8 2.56 12.8 2.56l5.12 20.48h-25.6z m12.8 38.4l-7.68-28.16c5.12 2.56 10.24 5.12 12.8 7.68 5.12 0 7.68 2.56 12.8 2.56l5.12 20.48-23.04-2.56z m53.76 0l-30.72-104.96h7.68l-7.68-20.48h-7.68l-2.56-7.68h-30.72l2.56 7.68h-61.44l5.12 20.48h5.12l33.28 107.52 7.68 20.48h30.72l-2.56-10.24 15.36 7.68c7.68 2.56 51.2 2.56 51.2 2.56l-7.68-20.48-7.68-2.56zM816.64 348.15999999999997h33.28v-12.8c0-2.56 2.56-2.56 5.12-2.56h7.68l-5.12-20.48h-17.92c-15.36 0-20.48 5.12-20.48 12.8l-2.56 23.04z m2.56-97.28h-30.72l5.12 17.92h35.84l5.12 15.36h-35.84l5.12 20.48h97.28l-5.12-20.48h-33.28l-5.12-15.36h33.28l-5.12-17.92h-35.84l-5.12-7.68h15.36l2.56-23.04v-5.12c2.56 0 5.12-2.56 7.68 0h5.12l-5.12-20.48h-17.92c-2.56 0-5.12 2.56-7.68 2.56-2.56 2.56-5.12 5.12-5.12 7.68l-2.56 23.04-20.48-23.04c-5.12-7.68-15.36-12.8-23.04-12.8h-23.04l5.12 20.48h7.68c2.56 0 5.12 0 5.12 2.56 2.56 0 2.56 2.56 5.12 5.12l25.6 30.72z m-340.48 51.2h81.92l-5.12-20.48h-33.28l-5.12-17.92h33.28l-5.12-20.48H512l-7.68-28.16c0-2.56 7.68-2.56 10.24-2.56l17.92 2.56-7.68-23.04h-46.08c-2.56 0-5.12 2.56-5.12 5.12-2.56 2.56-2.56 5.12-2.56 7.68l10.24 35.84H460.8l5.12 20.48h20.48l5.12 17.92h-20.48l7.68 23.04z m53.76 33.28h33.28l-5.12-20.48h-46.08l-5.12-5.12c-2.56 0-2.56-2.56-5.12-2.56-5.12-2.56-10.24-5.12-15.36-5.12h-15.36l5.12 20.48h12.8c2.56 2.56 5.12 5.12 5.12 7.68l7.68 15.36H537.6l-5.12-10.24zM599.04 302.08000000000004c7.68 5.12 15.36 10.24 25.6 10.24h25.6l2.56 10.24h-48.64l-5.12-20.48z m43.52-7.68h-48.64l-2.56-10.24h46.08l5.12 10.24z m-61.44 53.76h28.16l-2.56-15.36c5.12 2.56 10.24 7.68 15.36 10.24 7.68 2.56 12.8 2.56 20.48 5.12h46.08l-15.36-53.76c-2.56-5.12-5.12-12.8-7.68-17.92l-7.68-7.68c-2.56-2.56-7.68-2.56-10.24-2.56H588.8l-12.8-40.96v-7.68c0-2.56 2.56-2.56 5.12-2.56l20.48 2.56-7.68-23.04h-38.4c-2.56 0-7.68 0-10.24 2.56-2.56 2.56-5.12 5.12-5.12 7.68 0 2.56 2.56 7.68 2.56 10.24l38.4 133.12zM665.6 261.12l-2.56-12.8c0-2.56-2.56-7.68-5.12-10.24-5.12-5.12-10.24-5.12-15.36-5.12h-15.36v-15.36c0-5.12 0-2.56 2.56-5.12 0 0 2.56 0 2.56-2.56h20.48l-7.68-20.48h-17.92c-7.68 0-17.92 0-25.6 2.56-2.56 2.56-5.12 5.12-2.56 7.68V256h28.16v-10.24h12.8l2.56 2.56 2.56 10.24 20.48 2.56m-399.36 281.6c0-5.12-20.48-87.04-20.48-87.04 0-12.8-7.68-25.6-15.36-35.84-5.12-5.12-12.8-7.68-20.48-7.68-5.12 0-10.24 0-12.8 5.12-2.56 2.56-5.12 7.68-5.12 12.8V435.2l2.56 23.04s20.48 76.8 23.04 87.04H174.08v-5.12L153.6 455.68l-2.56-7.68-2.56-23.04c0-5.12 0-12.8 5.12-17.92 7.68-15.36 33.28-17.92 48.64-17.92 15.36 0 33.28 2.56 46.08 10.24 17.92 10.24 28.16 28.16 30.72 48.64l2.56 7.68s20.48 79.36 23.04 89.6c-15.36-2.56-28.16-2.56-38.4-2.56z m107.52-156.16h-33.28l5.12 17.92 2.56 7.68c2.56 12.8 5.12 25.6 5.12 30.72v5.12c0 2.56-2.56 2.56-5.12 2.56s-7.68-2.56-10.24-2.56c-2.56-7.68-5.12-25.6-7.68-33.28-2.56-17.92-5.12-20.48-5.12-28.16h-33.28l7.68 30.72c5.12 17.92 7.68 35.84 10.24 53.76 15.36 2.56 20.48 2.56 35.84 5.12l2.56-2.56-2.56-10.24c2.56 2.56 5.12 2.56 7.68 5.12 7.68 2.56 12.8 5.12 20.48 5.12 7.68 0 15.36-2.56 17.92-10.24 2.56-10.24 2.56-23.04-2.56-33.28l-5.12-5.12c-5.12-20.48-5.12-23.04-7.68-38.4h-2.56m51.2 0h-35.84c0 5.12 2.56 10.24 2.56 12.8 2.56 5.12 2.56 7.68 2.56 12.8 2.56 10.24 2.56 17.92 5.12 23.04 0 5.12 2.56 10.24 2.56 17.92l17.92 2.56 17.92 2.56c-2.56-5.12-2.56-12.8-5.12-20.48l2.56-15.36c-2.56-12.8-5.12-17.92-5.12-20.48 0-5.12 0-7.68-5.12-15.36m84.48 46.08c-2.56-7.68-5.12-15.36-7.68-20.48-2.56-2.56-5.12-5.12-10.24-5.12-2.56 0-5.12 0-5.12 2.56-2.56 2.56-2.56 5.12-2.56 7.68 0 5.12 0 10.24 2.56 15.36 2.56 15.36 7.68 28.16 17.92 28.16 10.24-2.56 7.68-12.8 5.12-28.16z m33.28 0c5.12 12.8 2.56 25.6-2.56 35.84-7.68 7.68-20.48 12.8-30.72 10.24-15.36 0-28.16-5.12-38.4-12.8-10.24-10.24-15.36-20.48-17.92-33.28-2.56-12.8-5.12-33.28 15.36-43.52 7.68-2.56 12.8-2.56 20.48-2.56 15.36 0 30.72 5.12 40.96 15.36 5.12 7.68 10.24 17.92 12.8 30.72z m340.48 46.08c-15.36-2.56-20.48-2.56-35.84-5.12v-2.56c-2.56 5.12-7.68 7.68-10.24 10.24-12.8 2.56-28.16-2.56-38.4-12.8-10.24-10.24-15.36-20.48-17.92-33.28-2.56-12.8-5.12-33.28 15.36-40.96 5.12-2.56 12.8-2.56 17.92-2.56 7.68 0 12.8 2.56 17.92 7.68l-2.56-5.12h38.4c2.56 12.8 5.12 25.6 10.24 53.76l5.12 30.72m-51.2-69.12c-2.56-2.56-7.68-5.12-12.8-5.12-2.56 0-5.12 0-5.12 2.56-2.56 2.56-2.56 5.12-2.56 7.68 0 5.12 0 10.24 2.56 15.36 2.56 15.36 7.68 28.16 17.92 28.16 7.68 0 10.24-5.12 10.24-15.36l-2.56-7.68c0-5.12-2.56-7.68-2.56-12.8-2.56-7.68-5.12-10.24-5.12-12.8z m-199.68-23.04h-33.28l5.12 17.92 2.56 7.68c2.56 12.8 5.12 25.6 5.12 30.72v5.12c0 2.56-2.56 2.56-5.12 2.56s-7.68-2.56-10.24-2.56c-2.56-7.68-5.12-25.6-7.68-33.28-2.56-17.92-5.12-20.48-5.12-28.16h-33.28l7.68 30.72c5.12 17.92 7.68 35.84 10.24 53.76 15.36 2.56 20.48 2.56 35.84 5.12l2.56-2.56-2.56-10.24 7.68 5.12c7.68 2.56 12.8 5.12 20.48 5.12 7.68 0 15.36-2.56 17.92-10.24 2.56-12.8 0-23.04-2.56-33.28l-2.56-10.24c-5.12-20.48-5.12-23.04-7.68-38.4l-5.12 5.12m112.64 156.16H691.2l-2.56-5.12-10.24-46.08-25.6-104.96H691.2c0 5.12 7.68 33.28 7.68 33.28l5.12 20.48 2.56 2.56h2.56c23.04-2.56 43.52 2.56 64 12.8 12.8 10.24 23.04 25.6 25.6 40.96 0 5.12 2.56 10.24 2.56 15.36 0 7.68-2.56 12.8-5.12 17.92-7.68 12.8-28.16 12.8-51.2 12.8z m15.36-48.64c-2.56-10.24-7.68-17.92-17.92-23.04-7.68-2.56-15.36-5.12-25.6-5.12h-5.12v2.56l10.24 46.08v5.12h5.12l23.04-2.56c10.24-2.56 12.8-12.8 10.24-23.04z m-320-25.6c7.68 5.12 10.24 15.36 2.56 17.92-10.24 2.56-20.48 2.56-28.16-5.12-7.68-5.12-10.24-15.36-2.56-17.92 10.24-5.12 20.48-2.56 28.16 5.12z m550.4 10.24c-17.92-2.56-20.48-2.56-35.84-5.12-10.24-25.6-10.24-20.48-20.48-38.4l-2.56 43.52-2.56 2.56c-17.92-2.56-17.92-2.56-33.28-5.12v-2.56c2.56-7.68 2.56-15.36 2.56-23.04 0-7.68 2.56-15.36 2.56-23.04 2.56-12.8 2.56-20.48 5.12-38.4-10.24-17.92-12.8-23.04-23.04-38.4l-7.68-10.24-2.56-2.56h-10.24l-5.12-20.48h20.48c10.24-2.56 20.48 2.56 25.6 12.8l12.8 23.04 2.56 2.56c10.24 10.24 74.24 122.88 71.68 122.88zM2490.88 481.28c10.24-20.48 10.24-20.48 23.04-20.48h35.84c-7.68 10.24-25.6 58.88-30.72 66.56-5.12 5.12-10.24 7.68-15.36 7.68h-33.28s12.8-33.28 20.48-53.76zM2662.4 665.6h-40.96l-12.8-51.2h-168.96l-5.12-23.04h168.96v-2.56l-48.64-207.36c0-7.68-2.56-15.36-7.68-20.48-5.12-7.68-15.36-10.24-25.6-10.24h-61.44v-12.8c5.12-7.68 12.8-12.8 23.04-10.24h71.68c15.36 0 28.16 10.24 30.72 23.04l56.32 240.64h38.4c2.56 5.12 2.56 10.24 0 15.36-5.12 5.12-12.8 7.68-20.48 7.68h-12.8l15.36 51.2zM2329.6 327.67999999999995h40.96l51.2 227.84c10.24 17.92 23.04 40.96 38.4 69.12 5.12 10.24 17.92 30.72 20.48 33.28l5.12 7.68h-40.96l-2.56-5.12c-17.92-33.28-40.96-74.24-53.76-94.72-20.48-33.28-40.96-53.76-53.76-58.88l-5.12-25.6h5.12c12.8 0 23.04 2.56 33.28 7.68L2329.6 327.67999999999995zM1914.88 591.36c0 5.12 0 7.68-2.56 12.8s-10.24 10.24-17.92 10.24h-153.6c-10.24 0-17.92-5.12-25.6-10.24l-2.56-2.56c-15.36-17.92-51.2-56.32-61.44-66.56h-35.84l15.36 17.92c20.48 25.6 104.96 117.76 104.96 117.76h-30.72c-2.56 0-7.68 0-10.24-2.56-5.12-2.56-10.24-7.68-12.8-10.24-2.56-5.12-64-74.24-89.6-104.96-5.12-5.12-7.68-10.24-7.68-15.36-2.56-5.12 0-12.8 2.56-17.92 5.12-5.12 10.24-7.68 15.36-5.12h33.28c-35.84-38.4-53.76-58.88-71.68-76.8-5.12-5.12-7.68-12.8-7.68-20.48 0-7.68 2.56 10.24 0 2.56-5.12-15.36 20.48-17.92 20.48-17.92h79.36c7.68 0 12.8 2.56 17.92 7.68 2.56 5.12 5.12 10.24 5.12 15.36h-84.48s115.2 130.56 133.12 148.48c7.68 10.24 20.48 17.92 33.28 20.48l153.6-2.56zM1894.4 509.44c2.56 5.12 0 10.24 0 15.36-2.56 5.12-7.68 7.68-15.36 7.68h-148.48c-7.68 0-12.8-5.12-17.92-10.24-2.56-2.56-5.12-7.68-5.12-12.8H1894.4zM1866.24 335.36c5.12 5.12 7.68 10.24 10.24 15.36H1817.6c-5.12 0-10.24 0-12.8 5.12-2.56 2.56-5.12 7.68-5.12 12.8l25.6 296.96h-40.96l-25.6-302.08c-2.56-17.92 5.12-38.4 48.64-38.4h38.4c5.12 2.56 12.8 5.12 20.48 10.24z m384 0c5.12 5.12 7.68 10.24 10.24 15.36-10.24 2.56-23.04 2.56-33.28 5.12-33.28 15.36-64 35.84-89.6 58.88 33.28 20.48 66.56 38.4 97.28 58.88 12.8 10.24 20.48 23.04 20.48 38.4 0 10.24-10.24 20.48-23.04 20.48H2150.4l15.36 56.32h135.68c2.56 5.12 2.56 12.8-2.56 17.92-5.12 5.12-10.24 7.68-15.36 7.68h-112.64l12.8 51.2h-43.52l-15.36-51.2h-115.2c-7.68 0-12.8-2.56-17.92-5.12-5.12-5.12-7.68-10.24-10.24-17.92h138.24l-12.8-56.32h-87.04c-7.68 0-15.36-2.56-20.48-7.68l-7.68-15.36H2201.6c5.12 0 12.8-10.24-5.12-20.48-33.28-20.48-71.68-40.96-87.04-51.2-2.56 2.56-28.16 23.04-46.08 38.4-7.68 2.56-15.36 7.68-23.04 7.68H1996.8l74.24-69.12c-20.48-12.8-40.96-25.6-66.56-38.4-15.36-10.24-33.28-17.92-51.2-20.48l-38.4-5.12c0-5.12 0-10.24 2.56-15.36 2.56-5.12 7.68-7.68 12.8-7.68h33.28c23.04 7.68 46.08 17.92 69.12 30.72 28.16 12.8 48.64 25.6 66.56 35.84 2.56-2.56 81.92-56.32 99.84-64h35.84c2.56-2.56 10.24 0 15.36 2.56z m-770.56 15.36h-94.72l25.6 110.08h76.8c2.56 5.12 2.56 12.8 0 17.92-5.12 5.12-12.8 7.68-20.48 5.12h-51.2L1433.6 563.2h-43.52l-17.92-79.36h-48.64c-7.68 0-15.36 0-23.04-5.12-5.12-5.12-7.68-10.24-7.68-17.92h74.24l-25.6-110.08h-69.12c-7.68 0-15.36 5.12-20.48 12.8-2.56 5.12-2.56 12.8 0 17.92l30.72 133.12 66.56 79.36h184.32c2.56 5.12 0 10.24-2.56 15.36-5.12 5.12-10.24 7.68-17.92 7.68h-143.36l7.68 7.68L1415.68 665.6h-48.64c-5.12-5.12-38.4-46.08-43.52-51.2h-71.68c-5.12 0-12.8-2.56-17.92-5.12-7.68-5.12-10.24-12.8-12.8-20.48h81.92c-76.8-94.72-79.36-102.4-112.64-120.32 0 0-5.12-20.48-5.12-23.04 17.92 5.12 33.28 15.36 46.08 25.6L1203.2 348.15999999999997c0-5.12 0-12.8 5.12-17.92 5.12-5.12 12.8-7.68 17.92-7.68h217.6c10.24 0 20.48 2.56 25.6 10.24 7.68 7.68 10.24 12.8 10.24 17.92z m189.44 7.68c-5.12-7.68-12.8-10.24-20.48-12.8l-115.2-20.48c2.56 10.24 5.12 17.92 12.8 25.6 5.12 5.12 12.8 10.24 20.48 10.24l110.08 10.24c-2.56-2.56-5.12-7.68-7.68-12.8zM1843.2 483.84c-10.24-17.92-20.48-33.28-35.84-48.64-7.68-7.68-17.92-12.8-28.16-12.8h-61.44c-7.68 0-15.36-2.56-23.04-5.12-5.12-5.12-10.24-10.24-10.24-17.92h51.2c58.88 0 74.24 0 102.4 23.04 17.92 17.92 35.84 38.4 48.64 61.44H1843.2M1159.68 163.84000000000003c2.56 12.8 7.68 23.04 12.8 33.28 5.12 7.68 10.24 12.8 15.36 17.92 5.12 5.12 12.8 10.24 20.48 12.8 10.24 2.56 20.48 5.12 28.16 5.12 15.36 2.56 30.72-5.12 40.96-17.92 10.24-15.36 10.24-33.28 5.12-48.64-2.56-20.48-12.8-35.84-28.16-48.64-12.8-12.8-30.72-17.92-51.2-17.92-15.36-2.56-30.72 5.12-40.96 17.92-7.68 12.8-10.24 30.72-2.56 46.08z m25.6 0c-2.56-10.24-2.56-23.04 2.56-33.28 5.12-7.68 15.36-12.8 23.04-10.24 10.24 0 20.48 5.12 28.16 10.24 10.24 10.24 15.36 20.48 17.92 35.84 2.56 10.24 2.56 23.04-2.56 33.28-5.12 7.68-15.36 12.8-23.04 10.24-10.24 0-20.48-5.12-28.16-10.24-7.68-10.24-15.36-20.48-17.92-35.84z m192-64h-25.6l10.24 48.64c2.56 5.12 2.56 12.8 2.56 20.48 0 2.56-2.56 5.12-2.56 7.68-2.56 2.56-5.12 2.56-7.68 2.56-5.12 0-7.68 0-12.8-2.56s-7.68-5.12-10.24-10.24l-7.68-23.04-10.24-43.52h-25.6l23.04 94.72h23.04l-2.56-12.8c7.68 10.24 20.48 15.36 35.84 15.36 5.12 0 10.24 0 15.36-2.56 2.56-2.56 7.68-5.12 7.68-7.68 2.56-2.56 2.56-7.68 2.56-10.24 0-5.12 0-10.24-2.56-17.92l-12.8-58.88m25.6 0L1433.6 230.39999999999998h25.6l-30.72-130.56h-25.6m51.2 0l23.04 94.72h25.6l-23.04-94.72h-25.6m23.04 107.52l5.12 23.04h25.6l-5.12-23.04h-25.6m112.64-107.52h-25.6l10.24 48.64c2.56 5.12 2.56 12.8 2.56 20.48 0 2.56-2.56 5.12-2.56 7.68-2.56 2.56-5.12 2.56-7.68 2.56-5.12 0-7.68 0-12.8-2.56s-7.68-5.12-10.24-10.24l-7.68-23.04-10.24-43.52h-25.6l23.04 94.72h23.04l-2.56-12.8c7.68 10.24 20.48 15.36 35.84 15.36 5.12 0 10.24 0 15.36-2.56 2.56-2.56 7.68-5.12 7.68-7.68 2.56-2.56 2.56-7.68 2.56-10.24 0-5.12 0-10.24-2.56-17.92l-12.8-58.88m87.04 30.72l23.04-5.12c-5.12-7.68-10.24-15.36-20.48-20.48-7.68-5.12-17.92-7.68-28.16-7.68-12.8-2.56-25.6 5.12-33.28 15.36-5.12 10.24-5.12 23.04-2.56 33.28 2.56 15.36 10.24 28.16 20.48 35.84 10.24 7.68 20.48 12.8 33.28 12.8s23.04-5.12 30.72-12.8c5.12-12.8 7.68-28.16 2.56-43.52H1638.4c-2.56-5.12 0-12.8 2.56-17.92 2.56-5.12 7.68-5.12 12.8-5.12 2.56 0 7.68 0 10.24 2.56 7.68 5.12 10.24 7.68 12.8 12.8z m7.68 25.6c2.56 5.12 0 10.24-2.56 15.36-2.56 2.56-7.68 5.12-12.8 5.12s-10.24-2.56-15.36-5.12c-5.12-5.12-7.68-10.24-10.24-15.36h40.96m133.12-56.32l30.72 130.56h40.96c10.24 0 20.48 0 30.72-2.56 7.68-2.56 12.8-7.68 15.36-12.8 2.56-7.68 5.12-17.92 2.56-25.6-2.56-7.68-5.12-12.8-10.24-20.48-7.68-10.24-17.92-17.92-28.16-20.48-10.24-2.56-17.92-2.56-28.16-2.56h-17.92l-10.24-46.08h-25.6m51.2 110.08l-7.68-35.84h15.36c7.68 0 15.36 0 20.48 2.56 2.56 2.56 7.68 2.56 10.24 7.68 2.56 2.56 5.12 7.68 5.12 10.24 0 5.12 0 7.68-2.56 12.8-2.56 2.56-5.12 5.12-10.24 5.12h-20.48l-10.24-2.56m104.96-43.52l-23.04 5.12c5.12 7.68 10.24 15.36 17.92 20.48 10.24 5.12 20.48 7.68 30.72 7.68 7.68 0 15.36 0 23.04-5.12 5.12-2.56 7.68-5.12 10.24-10.24 0-7.68 0-15.36-2.56-23.04l-7.68-28.16c-2.56-5.12-2.56-12.8-2.56-17.92 0-5.12 0-7.68 2.56-12.8h-25.6v7.68 2.56c-5.12-5.12-10.24-7.68-15.36-10.24-5.12-2.56-10.24-2.56-15.36-2.56-7.68 0-15.36 2.56-20.48 7.68-5.12 5.12-5.12 12.8-2.56 20.48 0 5.12 2.56 10.24 7.68 15.36 2.56 5.12 7.68 7.68 12.8 10.24 7.68 2.56 12.8 5.12 20.48 5.12 7.68 2.56 17.92 2.56 25.6 5.12v2.56c2.56 2.56 0 7.68 0 10.24-2.56 2.56-7.68 2.56-12.8 2.56-2.56 0-7.68 0-10.24-2.56-7.68-5.12-10.24-7.68-12.8-10.24z m28.16-20.48c-5.12-2.56-10.24-2.56-15.36-2.56-5.12 0-10.24-2.56-15.36-5.12l-7.68-7.68c0-2.56 0-7.68 2.56-10.24 2.56-2.56 5.12-5.12 10.24-2.56 5.12 0 10.24 2.56 12.8 5.12l7.68 7.68c2.56 5.12 2.56 7.68 2.56 12.8l2.56 2.56m48.64 48.64h25.6l7.68-66.56 38.4 66.56h25.6L2094.08 102.39999999999998l-10.24-15.36c-2.56-5.12-5.12-7.68-10.24-12.8l-7.68-7.68c-2.56-2.56-7.68-2.56-10.24-5.12-5.12 0-7.68-2.56-12.8-2.56s-10.24 0-12.8 2.56l2.56 20.48h10.24c5.12 0 10.24 2.56 15.36 5.12 2.56 2.56 7.68 7.68 10.24 12.8l-17.92 94.72m112.64 0h23.04l-2.56-12.8c7.68 10.24 20.48 15.36 33.28 15.36 5.12 0 10.24 0 15.36-2.56 5.12-2.56 7.68-7.68 7.68-10.24 5.12 5.12 10.24 7.68 15.36 10.24 5.12 2.56 10.24 2.56 15.36 2.56 5.12 0 12.8 0 17.92-5.12 5.12-2.56 7.68-7.68 7.68-12.8 0-7.68 0-12.8-2.56-20.48l-12.8-61.44h-25.6l12.8 53.76c2.56 5.12 2.56 12.8 2.56 17.92-2.56 2.56-5.12 5.12-10.24 5.12-2.56 0-7.68 0-10.24-2.56-2.56-2.56-7.68-5.12-7.68-10.24-2.56-5.12-5.12-12.8-7.68-20.48l-10.24-46.08h-25.6l12.8 51.2c2.56 5.12 2.56 12.8 2.56 17.92 0 2.56 0 5.12-2.56 5.12-2.56 2.56-5.12 2.56-7.68 2.56-5.12 0-7.68 0-10.24-2.56-2.56-2.56-7.68-5.12-7.68-10.24-2.56-5.12-5.12-12.8-7.68-20.48l-10.24-46.08h-25.6l20.48 102.4m204.8-64l23.04-5.12c-5.12-7.68-10.24-15.36-20.48-20.48-7.68-5.12-17.92-7.68-28.16-7.68-12.8-2.56-25.6 5.12-33.28 15.36-5.12 10.24-5.12 23.04-2.56 33.28 2.56 15.36 10.24 28.16 20.48 35.84 10.24 7.68 20.48 12.8 33.28 12.8s23.04-5.12 30.72-12.8c5.12-12.8 7.68-28.16 2.56-43.52H2329.6c-2.56-5.12 0-12.8 2.56-17.92 2.56-5.12 7.68-5.12 12.8-5.12 2.56 0 7.68 0 10.24 2.56 7.68 5.12 10.24 7.68 12.8 12.8z m7.68 25.6c2.56 5.12 0 10.24-2.56 15.36-2.56 2.56-7.68 5.12-12.8 5.12s-10.24-2.56-15.36-5.12c-5.12-5.12-7.68-10.24-10.24-15.36h40.96m117.76-56.32h-25.6l10.24 48.64c2.56 5.12 2.56 12.8 2.56 20.48 0 2.56-2.56 5.12-2.56 7.68-2.56 2.56-5.12 2.56-7.68 2.56-5.12 0-7.68 0-12.8-2.56s-7.68-5.12-10.24-10.24l-7.68-23.04-7.68-43.52h-25.6l23.04 94.72h23.04l-2.56-12.8c7.68 10.24 20.48 15.36 35.84 15.36 5.12 0 10.24 0 15.36-2.56 2.56-2.56 7.68-5.12 7.68-7.68v-10.24c0-5.12 0-10.24-2.56-17.92l-12.8-58.88m92.16 94.72l-5.12-20.48h-17.92l-7.68-38.4c0-5.12-2.56-10.24-2.56-12.8 0 0 0-2.56 2.56-2.56h5.12c2.56 0 7.68 0 10.24 2.56l-2.56-20.48c-7.68-2.56-12.8-2.56-20.48-2.56-5.12 0-7.68 0-12.8 2.56-2.56 0-5.12 2.56-7.68 5.12 0 2.56-2.56 7.68 0 10.24 0 5.12 2.56 12.8 2.56 17.92l10.24 40.96h-10.24l5.12 20.48h12.8l5.12 33.28h25.6l-7.68-33.28 15.36-2.56"  horiz-adv-x="2713" />

    
    <glyph glyph-name="Alipay" unicode="&#59002;" d="M329.985 342.52c-24.058-2.379-69.212-13.007-93.905-34.774-74.024-64.33-29.733-181.993 120.042-181.993 87.049 0 174.062 55.518 242.393 144.364-97.182 47.304-179.56 81.162-268.53 72.402zM888.652 261.21799999999996c138.636-46.3 170.078-48.786 170.078-48.786v497.774c0 84.951-68.965 153.793-154.163 153.793h-654.352c-85.215 0-154.216-68.843-154.216-153.793v-652.432c0-84.916 69.001-153.775 154.216-153.775h654.352c85.198 0 154.163 68.842 154.163 153.775v6.292c0 0-250.412 104.092-376.869 164.721-84.792-104.021-194.207-167.188-307.78-167.188-192.092 0-257.32 167.611-166.377 277.959 19.845 24.022 53.579 47.005 105.942 59.888 81.884 20.057 212.255-12.532 334.411-52.733 21.96 40.378 40.448 84.81 54.232 132.15h-376.499v38.034h194.119v68.154h-235.114v38.052h235.114v97.236c0 0 0 16.391 16.656 16.391h94.874v-113.627h232.47v-38.052h-232.47v-68.154h189.765c-18.154-74.165-45.754-142.443-80.351-202.385 57.58-20.762 109.291-40.448 147.801-53.297zM2429.051 713.502h275.598v-54.548h98.416v64.629c-0.036 0.158-0.036 0.212-0.036 0.388 0 14.523-11.386 26.278-25.485 26.526h-159.292v50.865h-102.998v-50.865h-184.619v-91.543h98.416v54.548zM1832.808 796.656l-100.919-238.657h77.408v-284.004h84.652v376.71h-30.65l63.766 145.95zM2814.363 287.038l-30.931 104.444c-2.027 6.662-8.09 11.491-15.246 11.509h-81.938l23.74-80.227h-96.337v155.379h189.202v37.012h-189.202v73.125h189.202v36.995h-472.219v-36.995h189.184v-73.125h-189.184v-37.012h189.184v-155.379h-189.184v-37.012h483.727l-0.388 1.269h0.388zM2049.292 601.0219999999999c-3.225 6.556-9.8 11.086-17.413 11.138h-73.283l57.068-179.772h86.713l-53.086 168.633zM2234.81 792.321h-87.982v-91.93h-216.837v-36.995h216.837v-330.481c-0.757-7.543-6.715-13.465-14.206-13.853h-44.696v-38.299h114.014c18.03 0.758 32.482 15.739 32.87 34.28v348.352h35.725v36.995h-35.725v91.93zM1685.853 624.85h-169.003v60.559h195.952v37.717h-195.952v76.738l-87.366-0.018c-9.57 0-17.307-8.002-17.307-17.906v-58.814h-194.577v-37.717h194.577v-60.559h-164.227v-37.7h327.114c0 0-18.118-70.763-107.845-146.831-80.386 60.858-107.264 109.326-107.264 109.326h-87.754c35.497-61.528 85.956-110.807 140.275-149.898-49.896-32.429-114.613-63.696-198.295-88.687v-45.172c0 0 129.101 24.357 253.867 97.87 124.959-72.931 250.464-97.87 250.464-97.87v42.758c-80.316 29.24-143.959 61.387-193.943 92.424 72.42 53.597 135.851 126.404 161.284 223.781zM1408.493 21.750999999999976l14.611-44.115h40.959l-80.668 219.039h-31.319l-80.369-219.039h40.977l15.246 44.115h80.562zM1368.873 140.22400000000005l30.297-90.838h-61.687l31.389 90.838zM1593.306 196.67600000000004v-219.039h132.608v29.821h-93.217v189.218zM1870.436 196.67600000000004h39.427v-219.023h-39.427v219.023zM2154.706 196.67600000000004h-85.127v-219.039h39.391v84.193h45.736c42.475 0 72.156 27.724 72.156 67.415s-29.68 67.433-72.156 67.433M2152.503 91.93200000000002h-43.533v74.94h43.533c21.855 0 34.914-19.123 34.914-37.628 0-18.082-12.232-37.312-34.914-37.312zM2458.221 21.750999999999976l14.611-44.115h40.959l-80.686 219.039h-31.301l-80.369-219.039h40.995l15.21 44.115h80.58zM2418.6 140.22400000000005l30.297-90.838h-61.687l31.389 90.838zM2733.254 196.67600000000004l-42.986-93.322-43.621 93.322h-42.581l66.322-129.066v-89.974h39.109v89.974l0.247 0.493 66.093 128.572z"  horiz-adv-x="2900" />

    
    </font>
</defs>
</svg>
